<?xml version="1.0" encoding="UTF-8" standalone="no"?>
<svg
   xmlns:dc="http://purl.org/dc/elements/1.1/"
   xmlns:cc="http://creativecommons.org/ns#"
   xmlns:rdf="http://www.w3.org/1999/02/22-rdf-syntax-ns#"
   xmlns:svg="http://www.w3.org/2000/svg"
   xmlns="http://www.w3.org/2000/svg"
   xmlns:sodipodi="http://sodipodi.sourceforge.net/DTD/sodipodi-0.dtd"
   xmlns:inkscape="http://www.inkscape.org/namespaces/inkscape"
   id="a594ac37-6d44-4297-8862-1cbd9c01c0b7"
   data-name="Layer 1"
   width="590"
   height="590"
   viewBox="0 0 589.99997 590"
   version="1.1"
   sodipodi:docname="software.svg"
   inkscape:version="0.92.4 (5da689c313, 2019-01-14)">
  <metadata
     id="metadata107">
    <rdf:RDF>
      <cc:Work
         rdf:about="">
        <dc:format>image/svg+xml</dc:format>
        <dc:type
           rdf:resource="http://purl.org/dc/dcmitype/StillImage" />
      </cc:Work>
    </rdf:RDF>
  </metadata>
  <defs
     id="defs105" />
  <sodipodi:namedview
     pagecolor="#ffffff"
     bordercolor="#666666"
     borderopacity="1"
     objecttolerance="10"
     gridtolerance="10"
     guidetolerance="10"
     inkscape:pageopacity="0"
     inkscape:pageshadow="2"
     inkscape:window-width="1920"
     inkscape:window-height="1017"
     id="namedview103"
     showgrid="false"
     inkscape:zoom="0.72079843"
     inkscape:cx="358.02066"
     inkscape:cy="236.66635"
     inkscape:window-x="-8"
     inkscape:window-y="-8"
     inkscape:window-maximized="1"
     inkscape:current-layer="a594ac37-6d44-4297-8862-1cbd9c01c0b7" />
  <title
     id="title2">code review</title>
  <rect
     x="0"
     y="0"
     width="590"
     height="590"
     id="rect14"
     style="fill:#3f3d56;stroke-width:1" />
  <path
     d="M 286.44458,80.62914 H 100.92686 a 2.25143,2.25143 0 1 1 0,-4.50285 h 185.51772 a 2.25143,2.25143 0 0 1 0,4.50285 z"
     id="path16"
     inkscape:connector-curvature="0"
     style="fill:#f2f2f2" />
  <path
     d="M 489.52343,105.39486 H 197.73829 a 2.25143,2.25143 0 0 1 0,-4.50286 h 291.78514 a 2.25143,2.25143 0 1 1 0,4.50286 z"
     id="path18"
     inkscape:connector-curvature="0"
     style="fill:#f2f2f2" />
  <path
     d="M 287.34515,130.16057 H 101.82743 a 2.25143,2.25143 0 1 1 0,-4.50286 h 185.51772 a 2.25143,2.25143 0 1 1 0,4.50286 z"
     id="path20"
     inkscape:connector-curvature="0"
     style="fill:#f2f2f2" />
  <path
     d="M 489.52343,130.61086 H 304.00572 a 2.25143,2.25143 0 0 1 0,-4.50286 h 185.51771 a 2.25143,2.25143 0 1 1 0,4.50286 z"
     id="path22"
     inkscape:connector-curvature="0"
     style="fill:#f2f2f2" />
  <path
     d="M 287.79543,154.92629 H 102.27772 a 2.25143,2.25143 0 0 1 0,-4.50286 h 185.51771 a 2.25143,2.25143 0 1 1 0,4.50286 z"
     id="path24"
     inkscape:connector-curvature="0"
     style="fill:#f2f2f2" />
  <path
     d="M 288.24572,179.692 H 102.728 a 2.25143,2.25143 0 0 1 0,-4.50286 h 185.51772 a 2.25143,2.25143 0 1 1 0,4.50286 z"
     id="path26"
     inkscape:connector-curvature="0"
     style="fill:#f2f2f2" />
  <path
     d="m 372.44915,81.07943 h -53.13372 a 2.25143,2.25143 0 0 1 0,-4.50286 h 53.13372 a 2.25143,2.25143 0 1 1 0,4.50286 z"
     id="path28"
     inkscape:connector-curvature="0"
     style="fill:#f2f2f2" />
  <path
     d="m 372.44915,154.92629 h -53.13372 a 2.25143,2.25143 0 0 1 0,-4.50286 h 53.13372 a 2.25143,2.25143 0 1 1 0,4.50286 z"
     id="path30"
     inkscape:connector-curvature="0"
     style="fill:#f2f2f2" />
  <path
     d="m 372.44915,179.24171 h -53.13372 a 2.25143,2.25143 0 1 1 0,-4.50285 h 53.13372 a 2.25143,2.25143 0 1 1 0,4.50285 z"
     id="path32"
     inkscape:connector-curvature="0"
     style="fill:#f2f2f2" />
  <path
     d="M 461.60572,179.24171 H 408.472 a 2.25143,2.25143 0 0 1 0,-4.50285 h 53.13372 a 2.25143,2.25143 0 1 1 0,4.50285 z"
     id="path34"
     inkscape:connector-curvature="0"
     style="fill:#f2f2f2" />
  <path
     d="m 153.61029,105.39486 h -53.13371 a 2.25143,2.25143 0 0 1 0,-4.50286 h 53.13371 a 2.25143,2.25143 0 0 1 0,4.50286 z"
     id="path36"
     inkscape:connector-curvature="0"
     style="fill:#f2f2f2" />
  <path
     d="M 286.66972,445.36057 H 101.152 a 2.25143,2.25143 0 0 1 0,-4.50286 h 185.51772 a 2.25143,2.25143 0 0 1 0,4.50286 z"
     id="path38"
     inkscape:connector-curvature="0"
     style="fill:#f2f2f2" />
  <path
     d="M 285.76915,494.892 H 100.25143 a 2.25143,2.25143 0 1 1 0,-4.50286 h 185.51772 a 2.25143,2.25143 0 0 1 0,4.50286 z"
     id="path40"
     inkscape:connector-curvature="0"
     style="fill:#f2f2f2" />
  <path
     d="M 286.21943,519.65771 H 100.70172 a 2.25143,2.25143 0 1 1 0,-4.50285 h 185.51771 a 2.25143,2.25143 0 1 1 0,4.50285 z"
     id="path42"
     inkscape:connector-curvature="0"
     style="fill:#f2f2f2" />
  <path
     d="M 365.46972,495.34229 H 312.336 a 2.25143,2.25143 0 0 1 0,-4.50286 h 53.13372 a 2.25143,2.25143 0 0 1 0,4.50286 z"
     id="path44"
     inkscape:connector-curvature="0"
     style="fill:#f2f2f2" />
  <path
     d="M 365.46972,519.65771 H 312.336 a 2.251425,2.251425 0 0 1 0,-4.50285 h 53.13372 a 2.251425,2.251425 0 1 1 0,4.50285 z"
     id="path46"
     inkscape:connector-curvature="0"
     style="fill:#f2f2f2" />
  <path
     d="m 454.62629,495.34229 h -53.13371 a 2.25143,2.25143 0 1 1 0,-4.50286 h 53.13371 a 2.25143,2.25143 0 0 1 0,4.50286 z"
     id="path48"
     inkscape:connector-curvature="0"
     style="fill:#f2f2f2" />
  <path
     d="M 489.74858,470.12629 H 197.96343 a 2.25143,2.25143 0 0 1 0,-4.50286 h 291.78515 a 2.25143,2.25143 0 0 1 0,4.50286 z"
     id="path50"
     inkscape:connector-curvature="0"
     style="fill:#f2f2f2" />
  <path
     d="m 153.83543,470.12629 h -53.13371 a 2.25143,2.25143 0 0 1 0,-4.50286 h 53.13371 a 2.25143,2.25143 0 0 1 0,4.50286 z"
     id="path52"
     inkscape:connector-curvature="0"
     style="fill:#f2f2f2" />
  <path
     d="M 489.74858,544.87371 H 197.96343 a 2.25143,2.25143 0 1 1 0,-4.50285 h 291.78515 a 2.251425,2.251425 0 0 1 0,4.50285 z"
     id="path54"
     inkscape:connector-curvature="0"
     style="fill:#f2f2f2" />
  <path
     d="m 153.83543,544.87371 h -53.13371 a 2.25143,2.25143 0 1 1 0,-4.50285 h 53.13371 a 2.25143,2.25143 0 1 1 0,4.50285 z"
     id="path56"
     inkscape:connector-curvature="0"
     style="fill:#f2f2f2" />
  <polygon
     points="535.72,417.79 519.06,401.13 447.014,472.275 519.06,543.42 535.27,527.21 480.786,472.725 "
     id="polygon58"
     style="fill:#6c63ff"
     transform="translate(-277.19354,-162)" />
  <polygon
     points="608.667,417.79 625.327,401.13 697.373,472.275 625.327,543.42 609.117,527.21 663.602,472.725 "
     id="polygon60"
     style="fill:#6c63ff"
     transform="translate(-277.19354,-162)" />
  <circle
     cx="20"
     cy="15"
     r="9"
     id="circle62"
     style="fill:#6c63ff" />
  <circle
     cx="44"
     cy="15"
     r="9"
     id="circle64"
     style="fill:#6c63ff" />
  <circle
     cx="68"
     cy="15"
     r="9"
     id="circle66"
     style="fill:#6c63ff" />
  <rect
     x="0"
     y="30"
     width="590"
     height="3"
     id="rect68"
     style="opacity:0.1;stroke-width:1" />
</svg>
