<?xml version="1.0" encoding="UTF-8" standalone="no"?>
<!-- Created with Inkscape (http://www.inkscape.org/) -->

<svg
   xmlns:dc="http://purl.org/dc/elements/1.1/"
   xmlns:cc="http://creativecommons.org/ns#"
   xmlns:rdf="http://www.w3.org/1999/02/22-rdf-syntax-ns#"
   xmlns:svg="http://www.w3.org/2000/svg"
   xmlns="http://www.w3.org/2000/svg"
   xmlns:xlink="http://www.w3.org/1999/xlink"
   xmlns:sodipodi="http://sodipodi.sourceforge.net/DTD/sodipodi-0.dtd"
   xmlns:inkscape="http://www.inkscape.org/namespaces/inkscape"
   width="141.99998"
   height="141.99998"
   viewBox="0 0 37.570828 37.57083"
   version="1.1"
   id="svg948"
   inkscape:version="0.92.4 (5da689c313, 2019-01-14)"
   sodipodi:docname="icon.svg">
  <defs
     id="defs942">
    <linearGradient
       inkscape:collect="always"
       id="linearGradient950">
      <stop
         style="stop-color:#22a7f2;stop-opacity:1;"
         offset="0"
         id="stop946" />
      <stop
         style="stop-color:#00e575;stop-opacity:0.96862745"
         offset="1"
         id="stop948" />
    </linearGradient>
    <linearGradient
       inkscape:collect="always"
       id="linearGradient2383">
      <stop
         style="stop-color:#71bae1;stop-opacity:1"
         offset="0"
         id="stop2379" />
      <stop
         style="stop-color:#3e5bd0;stop-opacity:1"
         offset="1"
         id="stop2381" />
    </linearGradient>
    <linearGradient
       inkscape:collect="always"
       xlink:href="#linearGradient2383"
       id="linearGradient841"
       gradientUnits="userSpaceOnUse"
       gradientTransform="matrix(0.81418878,0.01256239,-0.01256239,0.81418878,-2.836906,263.36033)"
       x1="22.488956"
       y1="3.9687541"
       x2="22.488956"
       y2="41.011364" />
    <linearGradient
       inkscape:collect="always"
       xlink:href="#linearGradient950"
       id="linearGradient1269"
       gradientUnits="userSpaceOnUse"
       gradientTransform="matrix(-2.9399637,0,0,-2.9399637,126.22845,121.30537)"
       x1="10.583333"
       y1="8.4666624"
       x2="32.878609"
       y2="37.381222" />
  </defs>
  <sodipodi:namedview
     id="base"
     pagecolor="#060606"
     bordercolor="#666666"
     borderopacity="1.0"
     inkscape:pageopacity="0"
     inkscape:pageshadow="2"
     inkscape:zoom="2"
     inkscape:cx="21.24955"
     inkscape:cy="113.67851"
     inkscape:document-units="px"
     inkscape:current-layer="layer3"
     showgrid="true"
     units="px"
     fit-margin-top="0"
     fit-margin-left="0"
     fit-margin-right="0"
     fit-margin-bottom="0"
     inkscape:pagecheckerboard="false"
     inkscape:window-width="1920"
     inkscape:window-height="1017"
     inkscape:window-x="-8"
     inkscape:window-y="-8"
     inkscape:window-maximized="1"
     inkscape:snap-to-guides="false"
     inkscape:snap-grids="false"
     showguides="false">
    <inkscape:grid
       type="xygrid"
       id="grid1500" />
  </sodipodi:namedview>
  <metadata
     id="metadata945">
    <rdf:RDF>
      <cc:Work
         rdf:about="">
        <dc:format>image/svg+xml</dc:format>
        <dc:type
           rdf:resource="http://purl.org/dc/dcmitype/StillImage" />
        <dc:title></dc:title>
      </cc:Work>
    </rdf:RDF>
  </metadata>
  <g
     inkscape:groupmode="layer"
     id="layer3"
     inkscape:label="Layer 6"
     style="display:inline" />
  <g
     inkscape:groupmode="layer"
     id="layer1"
     inkscape:label="Layer 4"
     style="display:inline">
    <path
       style="fill:url(#linearGradient1269);fill-opacity:1;stroke:none;stroke-width:1.00000012;stroke-opacity:1"
       d="M 71 12.099609 C 65.999999 27.099609 51.474266 31.627303 41.710938 41.390625 C 41.655714 41.445851 41.605606 41.503198 41.550781 41.558594 C 41.497962 41.610901 41.443298 41.658267 41.390625 41.710938 C 31.627304 51.474259 27.099609 66.000002 12.099609 71 C 27.099609 76.000001 31.627304 90.525734 41.390625 100.28906 C 41.43928 100.33772 41.490276 100.38134 41.539062 100.42969 C 41.598187 100.48947 41.651347 100.55174 41.710938 100.61133 C 51.474262 110.37465 65.999999 114.90039 71 129.90039 C 75.999998 114.90039 90.525734 110.37465 100.28906 100.61133 C 100.34429 100.5561 100.39439 100.49876 100.44922 100.44336 C 100.5027 100.3904 100.55799 100.34239 100.61133 100.28906 C 110.37465 90.525738 114.90039 76.000001 129.90039 71 C 114.90039 66.000002 110.37465 51.474266 100.61133 41.710938 C 100.54953 41.649144 100.48584 41.592545 100.42383 41.53125 C 100.3777 41.484723 100.33547 41.437038 100.28906 41.390625 C 99.877692 40.979254 99.446743 40.589269 99.019531 40.195312 C 89.307465 31.23926 75.789326 26.467595 71 12.099609 z M 70.998047 43.357422 C 71.328624 43.357422 71.656604 43.369357 71.984375 43.380859 C 72.174681 43.387393 72.36538 43.392004 72.554688 43.402344 C 72.953289 43.424457 73.348266 43.455323 73.742188 43.494141 C 73.846158 43.504294 73.949105 43.517989 74.052734 43.529297 C 75.627944 43.702484 77.162271 44.011115 78.646484 44.4375 C 78.948557 44.524498 79.249146 44.614015 79.546875 44.710938 C 79.850459 44.809538 80.154249 44.908863 80.453125 45.017578 C 80.929509 45.191257 81.399549 45.377456 81.863281 45.576172 C 82.1461 45.697118 82.42525 45.825069 82.703125 45.955078 C 83.045894 46.11577 83.383834 46.284814 83.71875 46.458984 C 84.060176 46.63622 84.397556 46.818895 84.730469 47.009766 C 85.082286 47.21182 85.429618 47.421809 85.771484 47.638672 C 85.972522 47.765995 86.175564 47.891116 86.373047 48.023438 C 86.841728 48.337985 87.298318 48.667896 87.746094 49.009766 C 87.92246 49.1442 88.09653 49.28138 88.269531 49.419922 C 88.71974 49.781047 89.163358 50.150989 89.589844 50.539062 C 89.591567 50.540631 89.59398 50.5414 89.595703 50.542969 C 89.727168 50.662475 89.851334 50.790124 89.980469 50.912109 C 90.350633 51.262323 90.712124 51.620226 91.0625 51.990234 C 91.169031 52.102554 91.27816 52.212077 91.382812 52.326172 C 91.807436 52.789858 92.214829 53.26982 92.607422 53.761719 C 92.695831 53.872313 92.782403 53.983731 92.869141 54.095703 C 93.26743 54.610692 93.651839 55.136738 94.013672 55.679688 C 94.061739 55.751695 94.10689 55.825956 94.154297 55.898438 C 94.509938 56.443112 94.848648 56.999932 95.166016 57.570312 C 95.191775 57.616527 95.220592 57.660654 95.246094 57.707031 C 95.587088 58.32825 95.901809 58.966144 96.195312 59.615234 C 96.21768 59.6646 96.239633 59.714152 96.261719 59.763672 C 96.554525 60.421559 96.824649 61.091618 97.066406 61.775391 C 97.077198 61.805842 97.086968 61.836687 97.097656 61.867188 C 97.594012 63.286995 97.979567 64.758688 98.240234 66.273438 C 98.504423 67.808645 98.642578 69.387429 98.642578 70.998047 C 98.642578 71.328624 98.630643 71.656604 98.619141 71.984375 C 98.612608 72.174681 98.607996 72.36538 98.597656 72.554688 C 98.575543 72.953289 98.544677 73.348266 98.505859 73.742188 C 98.495705 73.846158 98.482011 73.949105 98.470703 74.052734 C 98.087688 77.536418 97.056136 80.823563 95.501953 83.794922 C 95.318998 84.14407 95.128879 84.487961 94.931641 84.828125 C 94.744044 85.152225 94.551765 85.473456 94.351562 85.789062 C 94.118188 86.156305 93.8769 86.517832 93.626953 86.873047 C 93.482304 87.078975 93.339524 87.286531 93.189453 87.488281 C 92.847203 87.947583 92.488614 88.39533 92.119141 88.832031 C 91.973681 89.004231 91.825335 89.17324 91.675781 89.341797 C 91.280143 89.787007 90.874422 90.221849 90.451172 90.640625 C 90.325846 90.76483 90.196032 90.884054 90.068359 91.005859 C 89.63661 91.417079 89.19588 91.818295 88.738281 92.201172 C 88.643622 92.28051 88.548856 92.359412 88.453125 92.4375 C 87.951199 92.846213 87.432594 93.236086 86.902344 93.609375 C 86.814948 93.671002 86.728763 93.734287 86.640625 93.794922 C 86.080482 94.17963 85.504875 94.543237 84.916016 94.886719 C 84.81499 94.945753 84.713165 95.002763 84.611328 95.060547 C 84.003335 95.404907 83.383585 95.730771 82.748047 96.029297 C 82.610888 96.093857 82.472365 96.156389 82.333984 96.21875 C 82.09472 96.326341 81.8561 96.434228 81.613281 96.535156 C 81.611936 96.535716 81.610721 96.53655 81.609375 96.537109 C 81.591321 96.544627 81.57276 96.551113 81.554688 96.558594 C 80.482939 97.00119 79.376739 97.378733 78.242188 97.685547 C 77.874525 97.784973 77.504425 97.874509 77.130859 97.958984 C 77.113697 97.962865 77.097252 97.968807 77.080078 97.972656 C 77.070358 97.974843 77.060505 97.976339 77.050781 97.978516 C 76.678362 98.061557 76.301742 98.137222 75.923828 98.205078 C 75.914635 98.206729 75.905681 98.209296 75.896484 98.210938 C 75.888057 98.212448 75.879524 98.213341 75.871094 98.214844 C 75.482311 98.283871 75.091482 98.345835 74.697266 98.398438 C 73.489045 98.559656 72.256222 98.642578 71.003906 98.642578 C 70.67135 98.642578 70.341436 98.628827 70.011719 98.617188 C 69.824047 98.610718 69.63592 98.607827 69.449219 98.597656 C 69.049855 98.575532 68.652481 98.544751 68.257812 98.505859 C 68.154488 98.495768 68.052207 98.481934 67.949219 98.470703 C 64.454286 98.086665 61.158795 97.050625 58.179688 95.488281 C 57.85532 95.317878 57.535357 95.141734 57.21875 94.958984 C 56.862761 94.753847 56.511784 94.54062 56.166016 94.320312 C 55.825778 94.103154 55.490039 93.879857 55.160156 93.648438 C 54.937574 93.492557 54.713807 93.337984 54.496094 93.175781 C 54.048958 92.842076 53.613193 92.492349 53.1875 92.132812 C 53.007534 91.981056 52.828339 91.828097 52.652344 91.671875 C 52.204146 91.273382 51.767088 90.86398 51.345703 90.4375 C 51.22612 90.316669 51.111495 90.191367 50.994141 90.068359 C 50.586093 89.63994 50.188741 89.201924 49.808594 88.748047 C 49.726295 88.649964 49.643455 88.55236 49.5625 88.453125 C 49.153787 87.951199 48.763914 87.432594 48.390625 86.902344 C 48.328991 86.814948 48.26572 86.728763 48.205078 86.640625 C 47.82037 86.080482 47.456763 85.504875 47.113281 84.916016 C 47.05424 84.81499 46.997244 84.713165 46.939453 84.611328 C 46.595093 84.003335 46.269229 83.383585 45.970703 82.748047 C 45.906135 82.610888 45.843619 82.472365 45.78125 82.333984 C 45.673307 82.093937 45.564127 81.854953 45.462891 81.611328 C 45.459424 81.602987 45.456583 81.594283 45.453125 81.585938 C 45.005032 80.504592 44.624202 79.387592 44.314453 78.242188 C 44.215027 77.874525 44.125491 77.504425 44.041016 77.130859 C 44.034948 77.104028 44.027474 77.077642 44.021484 77.050781 C 43.938443 76.678362 43.862778 76.301742 43.794922 75.923828 C 43.791763 75.906234 43.788282 75.888699 43.785156 75.871094 C 43.716129 75.482311 43.654165 75.091482 43.601562 74.697266 C 43.440344 73.489045 43.357422 72.256222 43.357422 71.003906 C 43.357422 70.67135 43.371173 70.341436 43.382812 70.011719 C 43.389282 69.824047 43.392173 69.63592 43.402344 69.449219 C 43.424468 69.049855 43.455249 68.652481 43.494141 68.257812 C 43.504231 68.154488 43.518066 68.052207 43.529297 67.949219 C 43.70191 66.378351 44.007201 64.849591 44.431641 63.369141 C 44.518289 63.067593 44.608541 62.767928 44.705078 62.470703 C 44.806677 62.157223 44.909107 61.843621 45.021484 61.535156 C 45.192043 61.067984 45.375665 60.607344 45.570312 60.152344 C 45.696494 59.856825 45.830728 59.565516 45.966797 59.275391 C 46.114637 58.960763 46.268521 58.649807 46.427734 58.341797 C 46.621979 57.965365 46.824382 57.594635 47.035156 57.228516 C 47.22363 56.901669 47.41786 56.578004 47.619141 56.259766 C 47.756531 56.042204 47.891922 55.822783 48.035156 55.609375 C 48.340664 55.154913 48.66096 54.712131 48.992188 54.277344 C 49.139074 54.084226 49.289605 53.894168 49.441406 53.705078 C 49.796112 53.263956 50.158447 52.828447 50.539062 52.410156 C 50.540921 52.408111 50.543063 52.406341 50.544922 52.404297 C 50.658677 52.279158 50.778528 52.160137 50.894531 52.037109 C 51.248527 51.662276 51.61206 51.297946 51.986328 50.943359 C 52.105301 50.830462 52.220832 50.714304 52.341797 50.603516 C 52.800697 50.183904 53.275232 49.780851 53.761719 49.392578 C 53.872313 49.304159 53.983731 49.217606 54.095703 49.130859 C 54.610692 48.73257 55.136738 48.348161 55.679688 47.986328 C 55.751695 47.938256 55.825956 47.893115 55.898438 47.845703 C 56.443112 47.490062 56.999932 47.151352 57.570312 46.833984 C 57.616527 46.808222 57.660654 46.779411 57.707031 46.753906 C 58.32825 46.412912 58.966144 46.098191 59.615234 45.804688 C 59.6646 45.782317 59.714152 45.760369 59.763672 45.738281 C 60.424202 45.444299 61.096584 45.172205 61.783203 44.929688 C 61.806449 44.921458 61.830241 44.914419 61.853516 44.90625 C 63.277447 44.407628 64.753934 44.021252 66.273438 43.759766 C 67.808645 43.495577 69.387429 43.357422 70.998047 43.357422 z M 71.320312 57.166016 C 71.229839 57.164179 71.139322 57.170179 71.048828 57.169922 C 71.029384 57.16986 71.011673 57.167969 70.992188 57.167969 C 70.9393 57.167969 70.890474 57.173374 70.837891 57.173828 C 70.513108 57.177308 70.189055 57.191019 69.865234 57.214844 C 69.598792 57.231958 69.338132 57.256176 69.080078 57.285156 C 69.063804 57.287193 69.047517 57.288927 69.03125 57.291016 C 65.682759 57.677505 63.04349 59.045042 61.113281 60.984375 C 61.039885 61.055376 60.968298 61.128189 60.896484 61.201172 C 60.796484 61.306701 60.697539 61.412885 60.601562 61.521484 C 59.700669 62.503786 58.930863 63.641784 58.357422 64.957031 C 57.908206 65.983814 57.590737 67.12516 57.392578 68.355469 C 57.375903 68.451488 57.364447 68.548178 57.349609 68.644531 C 57.310745 68.918523 57.267379 69.188846 57.242188 69.472656 C 57.193447 69.96616 57.171183 70.460838 57.169922 70.957031 C 57.169872 70.974471 57.167969 70.99034 57.167969 71.007812 C 57.167969 71.051342 57.173521 71.091442 57.173828 71.134766 C 57.176867 71.477021 57.189213 71.818966 57.214844 72.160156 C 57.231031 72.406496 57.254898 72.647563 57.28125 72.886719 C 57.28541 72.920582 57.288584 72.95445 57.292969 72.988281 C 57.680839 76.312851 59.036847 78.937166 60.958984 80.861328 C 61.044378 80.950125 61.132424 81.036555 61.220703 81.123047 C 61.311647 81.208847 61.402877 81.29413 61.496094 81.376953 C 62.480088 82.284364 63.621384 83.059209 64.941406 83.636719 C 65.373523 83.826489 65.824768 83.995056 66.292969 84.142578 C 67.265255 84.448911 68.319653 84.653962 69.447266 84.755859 C 69.490966 84.760248 69.534384 84.765515 69.578125 84.769531 C 69.742875 84.783082 69.912032 84.789998 70.080078 84.798828 C 70.367863 84.815848 70.655012 84.829092 70.943359 84.830078 C 70.965293 84.830157 70.985826 84.832031 71.007812 84.832031 C 71.05136 84.832031 71.091424 84.82648 71.134766 84.826172 C 71.477021 84.823133 71.818966 84.810787 72.160156 84.785156 C 72.402284 84.769239 72.639814 84.746443 72.875 84.720703 C 72.919381 84.715286 72.963486 84.708928 73.007812 84.703125 C 76.318147 84.312754 78.932048 82.962653 80.851562 81.048828 C 80.944762 80.95938 81.036287 80.868012 81.126953 80.775391 C 81.212111 80.685031 81.296685 80.594553 81.378906 80.501953 C 82.285498 79.518405 83.059606 78.377707 83.636719 77.058594 C 83.826489 76.626477 83.995056 76.175232 84.142578 75.707031 C 84.445684 74.744986 84.648838 73.702 84.751953 72.587891 C 84.758581 72.523362 84.767622 72.459148 84.773438 72.394531 C 84.785312 72.247125 84.790724 72.095352 84.798828 71.945312 C 84.816709 71.650932 84.828979 71.357488 84.830078 71.0625 C 84.830172 71.03858 84.832031 71.016171 84.832031 70.992188 C 84.832031 70.939279 84.826626 70.890496 84.826172 70.837891 C 84.822692 70.513108 84.808981 70.189055 84.785156 69.865234 C 84.76835 69.603686 84.745041 69.347214 84.716797 69.09375 C 84.713469 69.066964 84.708547 69.040437 84.705078 69.013672 C 84.316343 65.678513 82.954826 63.049013 81.023438 61.123047 C 80.948348 61.045268 80.872233 60.968583 80.794922 60.892578 C 80.690636 60.79386 80.585796 60.696353 80.478516 60.601562 C 79.496214 59.700669 78.358216 58.930863 77.042969 58.357422 C 76.010237 57.905603 74.861668 57.586381 73.623047 57.388672 C 73.543331 57.374956 73.462759 57.365965 73.382812 57.353516 C 73.103071 57.313331 72.827111 57.268097 72.537109 57.242188 C 72.132163 57.201949 71.727401 57.174281 71.320312 57.166016 z "
       id="path1267"
       transform="scale(0.26458333)" />
    <path
       style="fill:#000000;fill-opacity:0.3137255;stroke:none;stroke-width:1.00000012;stroke-opacity:1"
       d="m 71.320312,57.166016 c -0.09047,-0.0018 -0.18099,0.0042 -0.271484,0.0039 -0.01944,-6.2e-5 -0.03715,-0.002 -0.05664,-0.002 -0.05289,0 -0.101714,0.0054 -0.154297,0.0059 -0.324783,0.0035 -0.648836,0.01719 -0.972657,0.04102 -0.266442,0.01711 -0.527102,0.04133 -0.785156,0.07031 -0.01627,0.002 -0.03256,0.0038 -0.04883,0.0059 -3.348491,0.386489 -5.98776,1.754026 -7.917969,3.693359 -0.0734,0.071 -0.144983,0.143814 -0.216797,0.216797 -0.1,0.105529 -0.198945,0.211713 -0.294922,0.320312 -0.900893,0.982302 -1.670699,2.1203 -2.24414,3.435547 -0.449216,1.026783 -0.766685,2.168129 -0.964844,3.398438 -0.01667,0.09602 -0.02813,0.192709 -0.04297,0.289062 -0.03886,0.273992 -0.08223,0.544315 -0.107421,0.828125 -0.04874,0.493504 -0.071,0.988182 -0.07227,1.484375 -5e-5,0.01744 -0.002,0.03331 -0.002,0.05078 0,0.04353 0.0056,0.08363 0.0059,0.126954 0.003,0.342255 0.01539,0.6842 0.04102,1.02539 0.01619,0.24634 0.04005,0.487407 0.06641,0.726563 0.0042,0.03386 0.0073,0.06773 0.01172,0.101562 0.38787,3.32457 1.743878,5.948885 3.666015,7.873047 0.08539,0.0888 0.17344,0.175227 0.261719,0.261719 0.09094,0.0858 0.182174,0.171083 0.275391,0.253906 0.983994,0.907411 2.12529,1.682256 3.445312,2.259766 0.432117,0.18977 0.883362,0.358337 1.351563,0.505859 0.972286,0.306333 2.026684,0.511384 3.154297,0.613281 0.0437,0.0044 0.08712,0.0097 0.130859,0.01367 0.16475,0.01355 0.333907,0.02047 0.501953,0.0293 0.287785,0.01702 0.574934,0.03026 0.863281,0.03125 0.02193,7.9e-5 0.04247,0.002 0.06445,0.002 0.04355,0 0.08361,-0.0056 0.126954,-0.0059 0.342255,-0.003 0.6842,-0.01538 1.02539,-0.04102 0.242128,-0.01592 0.479658,-0.03871 0.714844,-0.06445 0.04438,-0.0054 0.08849,-0.01178 0.132812,-0.01758 3.310335,-0.390371 5.924236,-1.740472 7.84375,-3.654297 0.0932,-0.08945 0.184725,-0.180816 0.275391,-0.273437 0.08516,-0.09036 0.169732,-0.180838 0.251953,-0.273438 0.906592,-0.983548 1.6807,-2.124246 2.257813,-3.443359 0.18977,-0.432117 0.358337,-0.883362 0.505859,-1.351563 0.303106,-0.962045 0.50626,-2.005031 0.609375,-3.11914 0.0066,-0.06453 0.01567,-0.128743 0.02148,-0.19336 0.01187,-0.147406 0.01729,-0.299179 0.02539,-0.449219 0.01788,-0.29438 0.03015,-0.587824 0.03125,-0.882812 9.4e-5,-0.02392 0.002,-0.04633 0.002,-0.07031 0,-0.05291 -0.0054,-0.101692 -0.0059,-0.154297 -0.0035,-0.324783 -0.01719,-0.648836 -0.04102,-0.972657 -0.01681,-0.261548 -0.04012,-0.51802 -0.06836,-0.771484 -0.0033,-0.02679 -0.0083,-0.05331 -0.01172,-0.08008 -0.388735,-3.335159 -1.750252,-5.964659 -3.68164,-7.890625 -0.07509,-0.07778 -0.151205,-0.154464 -0.228516,-0.230469 -0.104286,-0.09872 -0.209126,-0.196225 -0.316406,-0.291016 -0.982302,-0.900893 -2.1203,-1.670699 -3.435547,-2.24414 -1.032732,-0.451819 -2.181301,-0.771041 -3.419922,-0.96875 -0.07972,-0.01372 -0.160288,-0.02271 -0.240235,-0.03516 -0.279741,-0.04019 -0.555701,-0.08542 -0.845703,-0.111328 -0.404946,-0.04024 -0.809708,-0.06791 -1.216797,-0.07617 z"
       transform="scale(0.26458333)"
       id="path1315" />
  </g>
</svg>
