<?xml version="1.0" encoding="UTF-8" standalone="no"?>
<!-- Created with Inkscape (http://www.inkscape.org/) -->

<svg
   xmlns:dc="http://purl.org/dc/elements/1.1/"
   xmlns:cc="http://creativecommons.org/ns#"
   xmlns:rdf="http://www.w3.org/1999/02/22-rdf-syntax-ns#"
   xmlns:svg="http://www.w3.org/2000/svg"
   xmlns="http://www.w3.org/2000/svg"
   xmlns:xlink="http://www.w3.org/1999/xlink"
   xmlns:sodipodi="http://sodipodi.sourceforge.net/DTD/sodipodi-0.dtd"
   xmlns:inkscape="http://www.inkscape.org/namespaces/inkscape"
   width="544.67029"
   height="141.99998"
   viewBox="0 0 144.11068 37.570831"
   version="1.1"
   id="svg1089"
   inkscape:version="0.92.4 (5da689c313, 2019-01-14)"
   sodipodi:docname="logo.svg">
  <defs
     id="defs1083">
    <linearGradient
       inkscape:collect="always"
       id="linearGradient950">
      <stop
         style="stop-color:#22a7f2;stop-opacity:1;"
         offset="0"
         id="stop946" />
      <stop
         style="stop-color:#00e575;stop-opacity:0.96862745"
         offset="1"
         id="stop948" />
    </linearGradient>
    <linearGradient
       inkscape:collect="always"
       xlink:href="#linearGradient950"
       id="linearGradient1269-3"
       gradientUnits="userSpaceOnUse"
       gradientTransform="matrix(-0.77786542,0,0,-0.77786542,33.397956,290.20163)"
       x1="10.583333"
       y1="8.4666624"
       x2="32.878609"
       y2="37.381222" />
  </defs>
  <sodipodi:namedview
     id="base"
     pagecolor="#141414"
     bordercolor="#666666"
     borderopacity="1.0"
     inkscape:pageopacity="0"
     inkscape:pageshadow="2"
     inkscape:zoom="0.5"
     inkscape:cx="-634.44345"
     inkscape:cy="450.17082"
     inkscape:document-units="px"
     inkscape:current-layer="layer1"
     showgrid="false"
     units="px"
     inkscape:window-width="1920"
     inkscape:window-height="1017"
     inkscape:window-x="-8"
     inkscape:window-y="-8"
     inkscape:window-maximized="1"
     fit-margin-top="0"
     fit-margin-left="0"
     fit-margin-right="14"
     fit-margin-bottom="0">
    <inkscape:grid
       type="xygrid"
       id="grid1634"
       originx="0"
       originy="-1.3229243" />
  </sodipodi:namedview>
  <metadata
     id="metadata1086">
    <rdf:RDF>
      <cc:Work
         rdf:about="">
        <dc:format>image/svg+xml</dc:format>
        <dc:type
           rdf:resource="http://purl.org/dc/dcmitype/StillImage" />
        <dc:title />
      </cc:Work>
    </rdf:RDF>
  </metadata>
  <g
     inkscape:label="Layer 1"
     inkscape:groupmode="layer"
     id="layer1"
     transform="translate(0,-258.10624)"
     style="display:inline;opacity:1">
    <path
       inkscape:connector-curvature="0"
       style="display:inline;fill:url(#linearGradient1269-3);fill-opacity:1;stroke:none;stroke-width:0.26458338;stroke-opacity:1"
       d="m 18.785428,261.30761 c -1.322917,3.96875 -5.166184,5.1667 -7.749398,7.74991 -0.01461,0.0146 -0.02787,0.0298 -0.04237,0.0444 -0.01398,0.0138 -0.02844,0.0264 -0.04237,0.0403 -2.5832113,2.58327 -3.7811639,6.42654 -7.7499136,7.74945 3.9687497,1.32292 5.1667023,5.16619 7.7499146,7.7494 0.01287,0.0129 0.02637,0.0244 0.03927,0.0372 0.01564,0.0158 0.02971,0.0323 0.04548,0.0481 2.583212,2.58321 6.426481,3.78064 7.749398,7.74939 1.322915,-3.96875 5.166183,-5.16618 7.749396,-7.74939 0.0146,-0.0146 0.02787,-0.0298 0.04238,-0.0444 0.01416,-0.014 0.02878,-0.0267 0.04289,-0.0408 2.58321,-2.58321 3.780646,-6.42648 7.749396,-7.7494 -3.96875,-1.32291 -5.166186,-5.16618 -7.749397,-7.7494 -0.01635,-0.0163 -0.0332,-0.0313 -0.04961,-0.0475 -0.0122,-0.0123 -0.02339,-0.0249 -0.03566,-0.0372 -0.108841,-0.10884 -0.222863,-0.21202 -0.335896,-0.31626 -2.569651,-2.36962 -6.146325,-3.63212 -7.413501,-7.43365 z m -5.29e-4,8.2703 c 0.08747,0 0.174243,0.003 0.260966,0.006 0.05035,0.002 0.100807,0.003 0.150895,0.006 0.105463,0.006 0.209968,0.014 0.314193,0.0243 0.02751,0.003 0.05475,0.006 0.08216,0.009 0.416775,0.0458 0.822732,0.12748 1.21543,0.2403 0.07992,0.023 0.159454,0.0467 0.238228,0.0724 0.08032,0.0261 0.160701,0.0524 0.239779,0.0811 0.126043,0.046 0.250408,0.0952 0.373104,0.14779 0.07483,0.032 0.148687,0.0659 0.222209,0.10025 0.09069,0.0425 0.180104,0.0872 0.268717,0.13333 0.09034,0.0469 0.179601,0.0952 0.267684,0.14573 0.09309,0.0535 0.184983,0.10902 0.275435,0.1664 0.05319,0.0337 0.106913,0.0668 0.159164,0.1018 0.124005,0.0832 0.244811,0.17051 0.363285,0.26096 0.04666,0.0356 0.09272,0.0719 0.138493,0.10852 0.119118,0.0956 0.236492,0.19343 0.349333,0.29611 4.49e-4,4.2e-4 0.0011,6.1e-4 0.0016,0.001 0.03478,0.0316 0.06763,0.0654 0.101802,0.0977 0.09794,0.0927 0.193584,0.18736 0.286288,0.28525 0.02819,0.0297 0.05706,0.0587 0.08475,0.0889 0.112348,0.12268 0.220138,0.24967 0.324011,0.37982 0.02339,0.0293 0.0463,0.0587 0.06925,0.0884 0.105381,0.13625 0.207089,0.27544 0.302824,0.41909 0.01272,0.019 0.02466,0.0387 0.03721,0.0579 0.0941,0.14411 0.183713,0.29144 0.267684,0.44235 0.0068,0.0122 0.01444,0.0239 0.02119,0.0362 0.09022,0.16437 0.173491,0.33314 0.251147,0.50488 0.0059,0.0131 0.01173,0.0262 0.01757,0.0393 0.07747,0.17406 0.148942,0.35135 0.212907,0.53226 0.0029,0.008 0.0054,0.0162 0.0083,0.0243 0.131327,0.37566 0.233339,0.76505 0.302307,1.16582 0.0699,0.40619 0.106453,0.82391 0.106453,1.25006 0,0.0875 -0.0032,0.17424 -0.0062,0.26096 -0.0017,0.0503 -0.0029,0.10081 -0.0057,0.1509 -0.0058,0.10546 -0.01402,0.20996 -0.02429,0.31419 -0.0027,0.0275 -0.0063,0.0548 -0.0093,0.0822 -0.10134,0.92173 -0.374271,1.79145 -0.785482,2.57763 -0.04841,0.0924 -0.09871,0.18336 -0.150895,0.27336 -0.04963,0.0858 -0.100509,0.17075 -0.153479,0.25425 -0.06175,0.0972 -0.125588,0.19282 -0.19172,0.28681 -0.03827,0.0545 -0.07605,0.1094 -0.115755,0.16278 -0.09055,0.12152 -0.18543,0.23999 -0.283187,0.35553 -0.03849,0.0456 -0.07774,0.0903 -0.117305,0.13488 -0.10468,0.11779 -0.212027,0.23284 -0.324011,0.34364 -0.03316,0.0329 -0.06751,0.0644 -0.101286,0.0966 -0.114234,0.1088 -0.230844,0.21496 -0.351917,0.31626 -0.02505,0.021 -0.05012,0.0419 -0.07545,0.0625 -0.132802,0.10814 -0.270016,0.21129 -0.410311,0.31006 -0.02313,0.0163 -0.04593,0.0331 -0.06925,0.0491 -0.148204,0.10179 -0.3005,0.19799 -0.456302,0.28887 -0.02673,0.0156 -0.05367,0.0307 -0.08062,0.046 -0.160865,0.0911 -0.32484,0.17733 -0.492993,0.25632 -0.03629,0.0171 -0.07294,0.0336 -0.109554,0.0501 -0.0633,0.0285 -0.12644,0.057 -0.190686,0.0837 -3.44e-4,1.5e-4 -6.88e-4,3.7e-4 -0.001,5.3e-4 -0.0048,0.002 -0.0097,0.004 -0.01447,0.006 -0.283567,0.11711 -0.576249,0.217 -0.876432,0.29817 -0.09728,0.0263 -0.1952,0.05 -0.29404,0.0724 -0.0045,10e-4 -0.0089,0.003 -0.01344,0.004 -0.0026,5.8e-4 -0.0052,9.8e-4 -0.0078,0.002 -0.09854,0.022 -0.198184,0.042 -0.298173,0.0599 -0.0024,4.5e-4 -0.0048,10e-4 -0.0072,0.002 -0.0022,4e-4 -0.0045,6.4e-4 -0.0067,0.001 -0.102865,0.0183 -0.206272,0.0346 -0.310575,0.0486 -0.319675,0.0427 -0.64586,0.0646 -0.977202,0.0646 -0.08799,0 -0.175278,-0.004 -0.262516,-0.007 -0.04965,-0.002 -0.09943,-0.002 -0.148828,-0.005 -0.105665,-0.006 -0.210804,-0.014 -0.315226,-0.0243 -0.02734,-0.003 -0.0544,-0.006 -0.08165,-0.009 -0.924701,-0.10164 -1.796633,-0.37576 -2.584855,-0.78913 -0.08582,-0.0451 -0.170479,-0.0917 -0.254248,-0.14004 -0.09419,-0.0543 -0.187051,-0.11069 -0.278536,-0.16898 -0.09002,-0.0575 -0.178852,-0.11654 -0.266134,-0.17777 -0.05889,-0.0412 -0.118096,-0.0821 -0.175699,-0.12506 -0.118305,-0.0883 -0.233601,-0.18082 -0.346233,-0.27595 -0.04762,-0.0402 -0.09503,-0.0806 -0.141593,-0.12195 -0.118586,-0.10544 -0.234224,-0.21376 -0.345715,-0.3266 -0.03164,-0.032 -0.06197,-0.0651 -0.09302,-0.0977 -0.107963,-0.11335 -0.213095,-0.22924 -0.313676,-0.34933 -0.02177,-0.026 -0.04369,-0.0518 -0.06511,-0.078 -0.108139,-0.1328 -0.211292,-0.27002 -0.310058,-0.41031 -0.01631,-0.0231 -0.03305,-0.0459 -0.04909,-0.0693 -0.101788,-0.1482 -0.197992,-0.3005 -0.288872,-0.4563 -0.01562,-0.0267 -0.0307,-0.0537 -0.04599,-0.0806 -0.09111,-0.16086 -0.17733,-0.32484 -0.256315,-0.49299 -0.01708,-0.0363 -0.03362,-0.0729 -0.05013,-0.10955 -0.02856,-0.0635 -0.05745,-0.12675 -0.08423,-0.19121 -9.26e-4,-0.002 -0.0017,-0.005 -0.0026,-0.007 -0.118558,-0.2861 -0.219319,-0.58164 -0.301274,-0.8847 -0.02631,-0.0973 -0.05,-0.1952 -0.07235,-0.29403 -0.0016,-0.007 -0.0036,-0.0141 -0.0052,-0.0212 -0.02197,-0.0985 -0.04199,-0.19819 -0.05994,-0.29818 -8.46e-4,-0.005 -0.0018,-0.009 -0.0026,-0.014 -0.01826,-0.10286 -0.03466,-0.20627 -0.04858,-0.31057 -0.04266,-0.31968 -0.0646,-0.64586 -0.0646,-0.9772 0,-0.088 0.0036,-0.17528 0.0067,-0.26252 0.0017,-0.0496 0.0025,-0.0994 0.0052,-0.14883 0.0058,-0.10566 0.014,-0.2108 0.02429,-0.31522 0.0027,-0.0273 0.0063,-0.0544 0.0093,-0.0816 0.04567,-0.41563 0.126446,-0.82011 0.238746,-1.21182 0.02293,-0.0798 0.0468,-0.15907 0.07235,-0.23771 0.02688,-0.0829 0.05398,-0.16591 0.08372,-0.24753 0.04513,-0.1236 0.09371,-0.24548 0.14521,-0.36587 0.03339,-0.0782 0.0689,-0.15526 0.104904,-0.23202 0.03912,-0.0832 0.07983,-0.16552 0.121956,-0.24702 0.05139,-0.0996 0.104946,-0.19768 0.160714,-0.29455 0.04987,-0.0865 0.101257,-0.17212 0.154512,-0.25632 0.03635,-0.0576 0.07217,-0.11562 0.110071,-0.17208 0.08083,-0.12024 0.165577,-0.2374 0.253215,-0.35243 0.03886,-0.0511 0.07869,-0.10139 0.118855,-0.15142 0.09385,-0.11671 0.189717,-0.23194 0.290422,-0.34261 5.02e-4,-5.3e-4 0.0011,-10e-4 0.0016,-0.002 0.0301,-0.0331 0.06181,-0.0646 0.0925,-0.0971 0.09366,-0.0992 0.189847,-0.19557 0.288872,-0.28939 0.03148,-0.0299 0.06205,-0.0606 0.09405,-0.0899 0.121417,-0.11102 0.246971,-0.21766 0.375688,-0.32039 0.02926,-0.0234 0.05874,-0.0463 0.08837,-0.0692 0.136258,-0.10538 0.275441,-0.20709 0.419096,-0.30282 0.01905,-0.0127 0.0387,-0.0247 0.05788,-0.0372 0.144112,-0.0941 0.291437,-0.18371 0.44235,-0.26768 0.01223,-0.007 0.0239,-0.0144 0.03617,-0.0212 0.164365,-0.0902 0.333141,-0.17349 0.504879,-0.25115 0.01306,-0.006 0.02617,-0.0117 0.03927,-0.0176 0.174766,-0.0778 0.352667,-0.14977 0.534335,-0.21394 0.0062,-0.002 0.01245,-0.004 0.0186,-0.006 0.376749,-0.13193 0.767403,-0.23416 1.169438,-0.30334 0.40619,-0.0699 0.82391,-0.10646 1.250053,-0.10646 z m 0.08527,3.65352 c -0.02394,-4.8e-4 -0.04789,0.001 -0.07183,0.001 -0.0051,-1e-5 -0.0098,-5.3e-4 -0.01499,-5.3e-4 -0.01399,0 -0.02691,10e-4 -0.04082,0.002 -0.08593,9.3e-4 -0.171671,0.005 -0.257348,0.0109 -0.0705,0.005 -0.139463,0.0109 -0.20774,0.0186 -0.0043,5.3e-4 -0.0086,0.001 -0.01292,0.002 -0.885955,0.10226 -1.584262,0.46409 -2.094963,0.9772 -0.01942,0.0188 -0.03836,0.038 -0.05736,0.0574 -0.02646,0.0279 -0.05264,0.056 -0.07803,0.0848 -0.238362,0.2599 -0.442039,0.561 -0.593762,0.90899 -0.118855,0.27167 -0.202852,0.57365 -0.255282,0.89917 -0.0044,0.0254 -0.0074,0.051 -0.01137,0.0765 -0.01028,0.0725 -0.02176,0.14402 -0.02842,0.21911 -0.0129,0.13057 -0.01878,0.26146 -0.01912,0.39274 -1.4e-5,0.005 -5.3e-4,0.009 -5.3e-4,0.0134 0,0.0115 0.0015,0.0221 0.0016,0.0336 7.94e-4,0.0906 0.0041,0.18102 0.01085,0.2713 0.0043,0.0652 0.0106,0.12896 0.01757,0.19223 0.0011,0.009 0.0019,0.0179 0.0031,0.0269 0.102624,0.87962 0.461401,1.57397 0.969966,2.08307 0.02259,0.0235 0.04589,0.0464 0.06925,0.0693 0.02406,0.0227 0.0482,0.0453 0.07286,0.0672 0.260349,0.24008 0.562317,0.4451 0.911573,0.5979 0.114331,0.0502 0.233722,0.0948 0.357601,0.13384 0.25725,0.0811 0.536226,0.1353 0.834574,0.16226 0.01156,10e-4 0.02305,0.003 0.03462,0.004 0.04359,0.004 0.08835,0.005 0.132809,0.008 0.07614,0.005 0.152118,0.008 0.228409,0.008 0.0058,2e-5 0.01124,5.3e-4 0.01705,5.3e-4 0.01152,0 0.02212,-10e-4 0.03359,-0.002 0.09056,-8e-4 0.181028,-0.004 0.271301,-0.0109 0.06406,-0.004 0.126909,-0.0102 0.189136,-0.017 0.01174,-0.001 0.02341,-0.003 0.03514,-0.005 0.87586,-0.10329 1.567455,-0.4605 2.075326,-0.96687 0.02466,-0.0237 0.04887,-0.0478 0.07286,-0.0723 0.02253,-0.0239 0.04491,-0.0479 0.06666,-0.0724 0.23987,-0.26023 0.444686,-0.56204 0.59738,-0.91106 0.05021,-0.11433 0.09481,-0.23372 0.133842,-0.3576 0.0802,-0.25454 0.133948,-0.53049 0.16123,-0.82527 0.0017,-0.0171 0.0041,-0.0341 0.0057,-0.0512 0.0031,-0.039 0.0046,-0.0792 0.0067,-0.11886 0.0047,-0.0779 0.008,-0.15552 0.0083,-0.23357 2.5e-5,-0.006 5.29e-4,-0.0123 5.29e-4,-0.0186 0,-0.014 -0.0014,-0.0269 -0.0016,-0.0408 -9.26e-4,-0.0859 -0.0045,-0.17167 -0.01085,-0.25735 -0.0044,-0.0692 -0.01061,-0.13706 -0.01809,-0.20412 -8.73e-4,-0.007 -0.0022,-0.0141 -0.0031,-0.0212 -0.102853,-0.88243 -0.463088,-1.57815 -0.974101,-2.08773 -0.01987,-0.0206 -0.04001,-0.0409 -0.06046,-0.061 -0.02759,-0.0261 -0.05533,-0.0519 -0.08372,-0.077 -0.259901,-0.23836 -0.560996,-0.44204 -0.908989,-0.59376 -0.273243,-0.11955 -0.577135,-0.20401 -0.904854,-0.25632 -0.02109,-0.004 -0.04241,-0.006 -0.06356,-0.009 -0.07401,-0.0106 -0.147029,-0.0226 -0.223759,-0.0295 -0.107142,-0.0106 -0.214235,-0.018 -0.321944,-0.0202 z"
       id="path1267-1" />
    <path
       inkscape:connector-curvature="0"
       style="display:inline;fill:#000000;fill-opacity:0.31372549;stroke:none;stroke-width:0.26458338;stroke-opacity:1"
       d="m 18.870177,273.23143 c -0.02394,-4.8e-4 -0.04789,0.001 -0.07183,0.001 -0.0051,-1e-5 -0.0098,-5.3e-4 -0.01499,-5.3e-4 -0.01399,0 -0.02691,10e-4 -0.04082,0.002 -0.08593,9.3e-4 -0.171671,0.005 -0.257349,0.0109 -0.0705,0.005 -0.139462,0.0109 -0.207739,0.0186 -0.0043,5.3e-4 -0.0086,0.001 -0.01292,0.002 -0.885955,0.10226 -1.584261,0.46409 -2.094963,0.9772 -0.01942,0.0188 -0.03836,0.038 -0.05736,0.0574 -0.02646,0.0279 -0.05264,0.056 -0.07803,0.0848 -0.238361,0.2599 -0.442039,0.561 -0.593762,0.90899 -0.118855,0.27167 -0.202852,0.57365 -0.255282,0.89917 -0.0044,0.0254 -0.0074,0.051 -0.01137,0.0765 -0.01028,0.0725 -0.02176,0.14402 -0.02842,0.21911 -0.0129,0.13057 -0.01878,0.26146 -0.01912,0.39274 -1.3e-5,0.005 -5.29e-4,0.009 -5.29e-4,0.0134 0,0.0115 0.0015,0.0221 0.0016,0.0336 7.94e-4,0.0906 0.0041,0.18102 0.01085,0.2713 0.0043,0.0652 0.0106,0.12896 0.01757,0.19223 0.0011,0.009 0.0019,0.0179 0.0031,0.0269 0.102624,0.87962 0.461401,1.57397 0.969967,2.08307 0.02259,0.0235 0.04589,0.0464 0.06925,0.0693 0.02406,0.0227 0.0482,0.0453 0.07286,0.0672 0.260348,0.24008 0.562316,0.4451 0.911572,0.5979 0.114331,0.0502 0.233723,0.0948 0.357601,0.13384 0.257251,0.0811 0.536227,0.1353 0.834575,0.16226 0.01156,10e-4 0.02305,0.003 0.03462,0.004 0.04359,0.004 0.08835,0.005 0.132808,0.008 0.07614,0.005 0.152118,0.008 0.22841,0.008 0.0058,2e-5 0.01124,5.3e-4 0.01705,5.3e-4 0.01152,0 0.02212,-10e-4 0.03359,-0.002 0.09056,-8e-4 0.181028,-0.004 0.271301,-0.0109 0.06406,-0.004 0.12691,-0.0102 0.189136,-0.017 0.01174,-0.001 0.02341,-0.003 0.03514,-0.005 0.875859,-0.10329 1.567454,-0.4605 2.075325,-0.96687 0.02466,-0.0237 0.04888,-0.0478 0.07286,-0.0723 0.02253,-0.0239 0.04491,-0.0479 0.06666,-0.0724 0.239869,-0.26023 0.444685,-0.56204 0.59738,-0.91106 0.05021,-0.11433 0.09481,-0.23372 0.133841,-0.3576 0.0802,-0.25454 0.133948,-0.53049 0.161231,-0.82527 0.0017,-0.0171 0.0041,-0.0341 0.0057,-0.0512 0.0031,-0.039 0.0046,-0.0792 0.0067,-0.11886 0.0047,-0.0779 0.008,-0.15552 0.0083,-0.23357 2.5e-5,-0.006 5.29e-4,-0.0123 5.29e-4,-0.0186 0,-0.014 -0.0014,-0.0269 -0.0016,-0.0408 -9.26e-4,-0.0859 -0.0045,-0.17167 -0.01085,-0.25735 -0.0044,-0.0692 -0.01062,-0.13706 -0.01809,-0.20412 -8.73e-4,-0.007 -0.0022,-0.0141 -0.0031,-0.0212 -0.102853,-0.88243 -0.463087,-1.57815 -0.9741,-2.08773 -0.01987,-0.0206 -0.04001,-0.0409 -0.06046,-0.061 -0.02759,-0.0261 -0.05533,-0.0519 -0.08372,-0.077 -0.2599,-0.23836 -0.560996,-0.44204 -0.908988,-0.59376 -0.273244,-0.11955 -0.577136,-0.20401 -0.904855,-0.25632 -0.02109,-0.004 -0.04241,-0.006 -0.06356,-0.009 -0.07402,-0.0106 -0.147029,-0.0226 -0.223759,-0.0295 -0.107142,-0.0106 -0.214235,-0.018 -0.321944,-0.0202 z"
       id="path1315" />
  </g>
  <g
     inkscape:groupmode="layer"
     id="layer2"
     inkscape:label="Layer 2"
     transform="translate(0,4.0372213e-6)">
    <text
       xml:space="preserve"
       style="font-style:normal;font-variant:normal;font-weight:normal;font-stretch:normal;font-size:26.45833397px;line-height:6.61458349px;font-family:Negatronic;-inkscape-font-specification:Negatronic;font-variant-ligatures:normal;font-variant-caps:normal;font-variant-numeric:normal;text-align:start;letter-spacing:0px;word-spacing:0px;writing-mode:lr-tb;text-anchor:start;fill:#000000;fill-opacity:1;stroke:none;stroke-width:0.26458335"
       x="40.415104"
       y="-10.914068"
       id="text4522"><tspan
         sodipodi:role="line"
         id="tspan4520"
         x="40.415104"
         y="0.3307237"
         style="stroke-width:0.26458335" /></text>
    <g
       aria-label="HardPin"
       style="font-style:normal;font-variant:normal;font-weight:normal;font-stretch:normal;font-size:26.45833397px;line-height:6.61458349px;font-family:Negatronic;-inkscape-font-specification:Negatronic;font-variant-ligatures:normal;font-variant-caps:normal;font-variant-numeric:normal;text-align:start;letter-spacing:0px;word-spacing:0px;writing-mode:lr-tb;text-anchor:start;fill:#ffffff;fill-opacity:1;stroke:none;stroke-width:0.26458335"
       id="text860">
      <path
         d="m 42.333334,9.524996 h 3.65125 v 7.646459 h 8.625417 V 9.524996 h 3.65125 V 28.04583 h -3.65125 v -7.699375 h -8.625417 v 7.699375 h -3.65125 z"
         style="fill:#ffffff;fill-opacity:1;stroke-width:0.26458335"
         id="path862"
         inkscape:connector-curvature="0" />
      <path
         d="m 65.63155,28.04583 q -2.06375,0 -3.33375,-1.031875 -1.27,-1.031875 -1.27,-2.725209 v -0.767291 q 0,-1.666875 1.322916,-2.672292 1.322917,-1.031875 3.4925,-1.031875 h 1.613959 q 0.687917,0 1.481667,0.185208 0.79375,0.185209 1.455208,0.502709 V 19.31458 q 0,-0.661459 -0.449792,-1.058334 -0.423333,-0.423333 -1.137708,-0.423333 h -2.275417 q -0.740833,0 -1.190625,0.07937 -0.449792,0.07937 -0.449792,0.47625 h -3.4925 q 0,-1.74625 1.402292,-2.645834 1.42875,-0.926041 3.730625,-0.926041 h 2.275417 q 2.328333,0 3.757083,1.243541 1.42875,1.217084 1.42875,3.254376 v 8.73125 h -3.33375 v -1.5875 q -0.396875,0.47625 -1.561041,1.11125 -0.926042,0.47625 -1.825625,0.47625 z m 1.905,-2.751667 q 0.978958,0 1.74625,-0.502708 0.767292,-0.502709 1.11125,-1.349375 v -0.238125 q -0.423333,-0.3175 -1.190625,-0.502709 -0.740833,-0.185208 -1.5875,-0.185208 H 65.94905 q -0.635,0 -1.031875,0.3175 -0.396875,0.3175 -0.396875,0.846667 v 0.47625 q 0,0.502708 0.423333,0.820208 0.449792,0.3175 1.164167,0.3175 z"
         style="fill:#ffffff;fill-opacity:1;stroke-width:0.26458335"
         id="path864"
         inkscape:connector-curvature="0" />
      <path
         d="m 76.902389,14.816663 h 3.33375 v 1.719791 q 0.47625,-0.714375 1.42875,-1.243541 0.9525,-0.47625 1.984375,-0.47625 h 1.799167 v 3.095625 h -1.799167 q -1.402292,0 -2.275417,0.846667 -0.873125,0.846666 -0.873125,2.169583 v 7.117292 h -3.598333 z"
         style="fill:#ffffff;fill-opacity:1;stroke-width:0.26458335"
         id="path866"
         inkscape:connector-curvature="0" />
      <path
         d="m 91.322193,28.04583 q -2.354792,0 -3.81,-1.42875 -1.42875,-1.42875 -1.42875,-3.757084 v -2.619375 q 0,-1.613958 0.687916,-2.831041 0.687917,-1.243542 1.931459,-1.905001 1.243541,-0.687916 2.883958,-0.687916 h 1.455208 q 0.767292,0 1.561042,0.3175 1.137708,0.529166 1.322917,0.714375 V 9.524996 h 3.598333 V 28.04583 h -3.33375 v -1.74625 q -0.423333,0.582083 -1.42875,1.217083 -0.899583,0.529167 -1.878542,0.529167 z m 1.957916,-3.095625 q 1.084792,0 1.799167,-0.767292 0.740833,-0.79375 0.846667,-2.090208 v -1.905 q -0.185209,-1.031875 -0.820209,-1.640417 -0.608541,-0.635 -1.455208,-0.635 h -1.613958 q -1.058334,0 -1.719792,0.714375 -0.635,0.714375 -0.635,1.878542 v 2.090208 q 0,1.058333 0.582083,1.719792 0.582084,0.635 1.508125,0.635 z"
         style="fill:#ffffff;fill-opacity:1;stroke-width:0.26458335"
         id="path868"
         inkscape:connector-curvature="0" />
      <path
         d="m 102.69141,9.524996 h 9.76312 q 1.61396,0 2.8575,0.635 1.24354,0.608542 1.93146,1.772708 0.68792,1.137709 0.68792,2.619375 v 2.460626 q 0,1.534583 -0.71438,2.725208 -0.71437,1.164167 -2.01083,1.825625 -1.27,0.635 -2.96333,0.635 h -5.90021 v 5.847292 h -3.65125 z m 9.49854,9.498542 q 0.92604,0 1.50812,-0.582083 0.58209,-0.608542 0.58209,-1.5875 v -2.143126 q 0,-0.926041 -0.52917,-1.455208 -0.50271,-0.555625 -1.34937,-0.555625 h -6.05896 v 6.323542 z"
         style="fill:#ffffff;fill-opacity:1;stroke-width:0.26458335"
         id="path870"
         inkscape:connector-curvature="0" />
      <path
         d="m 120.32175,9.524996 h 3.59834 v 3.598333 h -3.59834 z m 0,5.291667 h 3.59834 V 28.04583 h -3.59834 z"
         style="fill:#ffffff;fill-opacity:1;stroke-width:0.26458335"
         id="path872"
         inkscape:connector-curvature="0" />
      <path
         d="m 127.44194,14.816663 h 3.33375 v 1.613958 q 0.50271,-0.582083 1.50812,-1.137708 0.92605,-0.47625 1.85209,-0.47625 h 1.5875 q 2.16958,0 3.41312,1.322916 1.27,1.322917 1.27,3.307292 v 8.598959 h -3.59833 v -8.466667 q 0,-0.820208 -0.44979,-1.322917 -0.42334,-0.502708 -1.11125,-0.502708 h -1.5875 q -0.92604,0 -1.66688,0.687917 -0.71437,0.661458 -0.9525,1.74625 v 7.858125 h -3.59833 z"
         style="fill:#ffffff;fill-opacity:1;stroke-width:0.26458335"
         id="path874"
         inkscape:connector-curvature="0" />
    </g>
  </g>
</svg>
