<?xml version="1.0" standalone="no"?>
<!DOCTYPE svg PUBLIC "-//W3C//DTD SVG 20010904//EN"
 "http://www.w3.org/TR/2001/REC-SVG-20010904/DTD/svg10.dtd">
<svg version="1.0" xmlns="http://www.w3.org/2000/svg"
 width="700.000000pt" height="700.000000pt" viewBox="0 0 700.000000 700.000000"
 preserveAspectRatio="xMidYMid meet">
<metadata>
Created by potrace 1.11, written by Peter Selinger 2001-2013
</metadata>
<g transform="translate(0.000000,700.000000) scale(0.100000,-0.100000)"
fill="#000000" stroke="none">
<path d="M3489 6938 c-2 -41 -6 -83 -12 -128 -16 -103 -20 -136 -19 -141 1 -4
-3 -32 -8 -63 -5 -31 -12 -84 -15 -117 -4 -33 -8 -70 -10 -81 -3 -11 -7 -46
-10 -77 -4 -31 -8 -67 -10 -81 -2 -14 -7 -47 -10 -75 -4 -27 -8 -61 -10 -75
-2 -14 -7 -52 -10 -85 -3 -33 -8 -71 -10 -85 -2 -14 -7 -44 -10 -67 -3 -24 -7
-60 -10 -82 -3 -21 -8 -57 -10 -81 -2 -24 -7 -59 -9 -79 -3 -20 -8 -54 -10
-76 -3 -22 -10 -77 -16 -122 -17 -126 -21 -162 -35 -282 -3 -23 -7 -55 -10
-70 -4 -23 -9 -64 -30 -238 -3 -21 -9 -74 -15 -118 -6 -45 -12 -99 -15 -120
-3 -22 -7 -56 -10 -75 -3 -19 -7 -51 -9 -70 -10 -80 -47 -377 -51 -396 -1 -11
-6 -51 -10 -87 -4 -37 -10 -69 -14 -71 -3 -2 -38 -7 -76 -11 -39 -3 -77 -8
-85 -10 -8 -2 -42 -7 -75 -11 -33 -3 -67 -8 -76 -9 -9 -2 -40 -6 -70 -10 -30
-3 -90 -11 -134 -16 -89 -12 -119 -16 -185 -24 -25 -3 -61 -8 -80 -10 -19 -3
-51 -7 -70 -9 -88 -9 -156 -18 -170 -21 -8 -2 -42 -7 -75 -10 -33 -4 -71 -8
-85 -10 -22 -4 -111 -15 -240 -31 -19 -2 -105 -13 -190 -24 -85 -12 -171 -23
-190 -25 -42 -5 -192 -24 -240 -30 -19 -3 -53 -7 -75 -10 -67 -8 -118 -14
-155 -19 -19 -3 -55 -8 -80 -10 -25 -3 -99 -12 -165 -21 -66 -9 -138 -18 -160
-20 -22 -3 -56 -7 -75 -10 -19 -3 -57 -8 -85 -11 -27 -3 -58 -8 -69 -10 -10
-2 -51 -6 -90 -10 -65 -6 -109 -19 -68 -20 23 -1 136 -14 159 -18 10 -2 47 -7
83 -11 36 -4 72 -8 80 -10 9 -2 43 -6 75 -10 33 -4 71 -9 85 -10 39 -5 271
-35 305 -40 17 -2 107 -13 200 -25 94 -11 185 -23 203 -25 18 -3 54 -7 80 -10
26 -3 65 -8 87 -11 22 -3 51 -7 65 -9 14 -2 50 -6 80 -10 30 -3 66 -8 80 -10
14 -3 45 -7 70 -10 25 -2 97 -11 160 -20 131 -17 149 -19 320 -40 69 -9 136
-18 150 -20 14 -2 54 -6 90 -10 36 -3 72 -8 80 -10 8 -2 40 -6 70 -9 30 -3 64
-8 75 -10 11 -2 49 -7 85 -10 36 -4 76 -9 90 -11 14 -3 45 -7 70 -10 25 -3 61
-7 80 -10 19 -3 52 -7 74 -10 58 -7 76 -15 76 -33 0 -14 18 -157 35 -282 3
-19 7 -57 10 -85 3 -27 8 -61 10 -75 2 -14 7 -47 10 -75 3 -27 7 -61 10 -75 2
-14 7 -52 10 -84 3 -33 8 -74 10 -93 11 -76 14 -102 25 -188 12 -101 18 -146
25 -190 2 -16 7 -56 10 -88 4 -32 8 -67 10 -79 3 -11 7 -46 10 -77 3 -31 8
-67 11 -81 2 -14 6 -45 9 -70 5 -49 16 -136 20 -160 2 -8 6 -44 10 -80 4 -36
8 -72 10 -80 1 -8 6 -42 9 -75 4 -33 9 -71 11 -85 2 -14 6 -47 9 -75 4 -27 8
-61 11 -75 2 -14 6 -45 9 -70 3 -25 12 -101 21 -170 9 -69 18 -143 20 -165 3
-22 7 -56 10 -75 36 -277 48 -371 49 -392 1 -39 14 1 20 62 3 36 8 79 10 95
14 96 41 314 51 400 4 33 9 67 10 76 2 9 9 60 15 114 6 54 13 105 15 114 1 9
6 45 10 81 4 36 9 72 10 80 2 8 6 44 10 80 3 36 8 72 10 80 2 8 7 44 10 80 4
36 9 73 11 84 2 10 6 44 9 75 4 31 8 67 10 81 11 82 15 110 20 155 3 28 8 64
10 80 3 17 12 86 20 155 9 69 18 139 20 155 2 17 7 53 10 80 14 114 20 160 30
234 3 21 8 57 10 81 2 24 7 59 9 79 8 54 13 96 41 321 14 113 28 210 30 216 2
6 30 14 62 18 32 3 69 8 83 10 14 3 51 7 84 11 32 4 68 8 80 10 11 2 44 6 71
10 28 3 86 10 130 16 44 5 98 12 120 15 40 4 96 12 145 19 14 2 48 6 75 9 28
3 66 8 85 11 19 3 53 7 75 10 22 2 94 11 160 20 66 8 140 18 165 21 25 2 61 7
80 10 19 2 53 7 75 9 22 3 56 7 75 10 19 3 55 7 80 10 76 9 134 16 160 20 14
2 48 7 76 10 28 3 59 7 70 9 10 2 48 7 84 11 36 3 76 8 90 10 14 2 81 11 149
20 69 9 138 17 155 20 17 2 52 6 77 10 25 3 65 8 90 11 24 2 78 9 119 14 42 6
94 12 115 15 22 3 56 7 75 10 91 13 136 18 153 17 9 0 17 3 17 9 0 5 -17 10
-37 10 -40 2 -53 3 -118 13 -22 3 -114 15 -205 26 -91 12 -178 23 -195 25 -16
2 -70 9 -120 15 -49 6 -103 13 -120 15 -16 2 -52 7 -80 10 -27 3 -65 8 -82 11
-18 2 -50 6 -70 9 -21 3 -54 7 -73 10 -19 3 -55 7 -80 10 -25 2 -135 16 -245
30 -110 14 -218 28 -240 30 -22 3 -56 7 -75 10 -19 3 -55 7 -80 10 -40 5 -69
9 -150 20 -14 2 -52 7 -85 11 -33 3 -68 8 -78 10 -10 2 -48 6 -85 10 -36 3
-74 7 -83 9 -21 4 -91 14 -144 20 -81 10 -211 26 -235 30 -14 2 -105 14 -202
26 -97 12 -181 25 -187 28 -5 3 -12 31 -16 61 -10 93 -35 293 -41 332 -8 62
-13 101 -19 148 -3 25 -7 59 -9 75 -2 17 -7 55 -11 85 -3 30 -8 66 -10 80 -10
75 -15 110 -20 160 -4 30 -8 66 -10 80 -2 14 -7 45 -10 70 -22 184 -52 420
-60 470 -2 14 -6 46 -9 73 -3 26 -9 68 -12 95 -3 26 -7 58 -9 72 -2 14 -7 52
-11 85 -3 33 -8 67 -9 75 -3 18 -16 120 -20 159 -3 26 -12 95 -20 161 -9 67
-14 106 -25 190 -6 47 -13 99 -15 115 -2 17 -7 53 -10 80 -6 57 -24 196 -30
240 -2 17 -7 53 -11 80 -4 28 -7 58 -6 68 0 9 -3 17 -9 17 -5 0 -10 -15 -10
-32z"/>
<path d="M690 5472 l0 -838 345 0 345 0 0 493 0 493 493 2 492 3 1 343 0 342
-838 0 -838 0 0 -838z"/>
<path d="M4634 5968 l1 -343 492 -3 493 -2 2 -493 3 -492 343 -1 342 0 0 838
0 838 -838 0 -838 0 0 -342z"/>
<path d="M695 2361 c-3 -2 -5 -379 -5 -838 l0 -833 838 0 838 0 0 345 0 345
-493 0 -493 0 0 493 0 493 -340 0 c-187 0 -343 -2 -345 -5z"/>
<path d="M5620 1873 l0 -493 -493 0 -493 0 0 -345 -1 -345 839 0 838 0 0 838
0 838 -345 0 -345 0 0 -493z"/>
</g>
</svg>
