<?xml version="1.0" encoding="UTF-8" standalone="no"?>
<svg
   xmlns:dc="http://purl.org/dc/elements/1.1/"
   xmlns:cc="http://creativecommons.org/ns#"
   xmlns:rdf="http://www.w3.org/1999/02/22-rdf-syntax-ns#"
   xmlns:svg="http://www.w3.org/2000/svg"
   xmlns="http://www.w3.org/2000/svg"
   xmlns:sodipodi="http://sodipodi.sourceforge.net/DTD/sodipodi-0.dtd"
   xmlns:inkscape="http://www.inkscape.org/namespaces/inkscape"
   id="bc263456-463a-4a26-ab4e-25ee29596588"
   data-name="Layer 1"
   width="363.56183"
   height="533.00476"
   viewBox="0 0 363.56181 533.00475"
   version="1.1"
   sodipodi:docname="undraw_artificial_intelligence_oyxx.svg"
   inkscape:version="0.92.4 (5da689c313, 2019-01-14)">
  <metadata
     id="metadata267">
    <rdf:RDF>
      <cc:Work
         rdf:about="">
        <dc:format>image/svg+xml</dc:format>
        <dc:type
           rdf:resource="http://purl.org/dc/dcmitype/StillImage" />
      </cc:Work>
    </rdf:RDF>
  </metadata>
  <defs
     id="defs265" />
  <sodipodi:namedview
     pagecolor="#ffffff"
     bordercolor="#666666"
     borderopacity="1"
     objecttolerance="10"
     gridtolerance="10"
     guidetolerance="10"
     inkscape:pageopacity="0"
     inkscape:pageshadow="2"
     inkscape:window-width="1920"
     inkscape:window-height="1017"
     id="namedview263"
     showgrid="false"
     inkscape:zoom="0.78924028"
     inkscape:cx="63.056966"
     inkscape:cy="361.39638"
     inkscape:window-x="-8"
     inkscape:window-y="-8"
     inkscape:window-maximized="1"
     inkscape:current-layer="bc263456-463a-4a26-ab4e-25ee29596588" />
  <title
     id="title2">Artificial intelligence</title>
  <rect
     x="65.776192"
     y="112.69782"
     width="232.00945"
     height="107.59858"
     rx="12.9697"
     id="rect126"
     style="fill:#0057f0" />
  <rect
     x="84.269722"
     y="203.78235"
     width="195.02243"
     height="2.0174699"
     id="rect128"
     style="opacity:0.1" />
  <rect
     x="84.269722"
     y="129.5101"
     width="195.02243"
     height="73.97403"
     id="rect130"
     style="opacity:0.3" />
  <circle
     cx="129.66284"
     cy="168.04089"
     r="26.899651"
     id="circle132"
     style="opacity:0.58800001;fill:#000000;fill-opacity:1" />
  <circle
     cx="233.89896"
     cy="168.04089"
     r="26.899651"
     id="circle134"
     style="opacity:0.58800001;fill:#000000;fill-opacity:1" />
  <rect
     x="161.60489"
     y="220.29337"
     width="40.347382"
     height="23.543039"
     id="rect136"
     style="fill:#0057f0" />
  <rect
     x="97.719521"
     y="237.10867"
     width="168.12279"
     height="134.49823"
     id="rect138"
     style="fill:#0057f0" />
  <rect
     x="94.357094"
     y="398.50656"
     width="174.8477"
     height="16.812281"
     id="rect140"
     style="fill:#0057f0" />
  <polygon
     points="435.067,658.149 435.067,674.961 435.067,685.048 465.329,685.048 465.329,674.961 465.329,658.149 465.329,627.887 465.329,607.712 465.329,584.175 435.067,584.175 435.067,607.712 435.067,627.887 "
     id="polygon142"
     style="fill:#0057f0"
     transform="translate(-312.12887,-152.04373)" />
  <polygon
     points="525.853,627.887 525.853,658.149 525.853,674.961 525.853,685.048 556.115,685.048 556.115,674.961 556.115,658.149 556.115,627.887 556.115,607.712 556.115,584.175 525.853,584.175 525.853,607.712 "
     id="polygon144"
     style="fill:#0057f0"
     transform="translate(-312.12887,-152.04373)" />
  <path
     d="m 74.819861,267.37171 v 31.1 a 45.48981,45.48981 0 0 0 -22.35428,10.77578 52.88313,52.88313 0 0 0 -13.30766,19.51363 c -3.89037,9.42495 -5.78154,19.892 -6.55344,29.78775 a 170.31725,170.31725 0 0 0 1.86031,39.96138 H 0.84071062 c -1.42805,-18.58739 -0.9726,-34.53493 0.87993998,-48.22848 2.07642,-15.438 5.92052,-28.00461 10.7912304,-38.22464 9.74141,-20.43225 23.59708,-31.51676 35.76995,-37.5376 14.45778,-7.14782 26.53803,-7.14782 26.53803,-7.14782 z"
     id="path146"
     inkscape:connector-curvature="0"
     style="fill:#0057f0" />
  <rect
     x="122.93797"
     y="432.13107"
     width="30.2621"
     height="23.537189"
     id="rect148"
     style="opacity:0.3" />
  <rect
     x="122.93797"
     y="475.84305"
     width="30.2621"
     height="30.2621"
     id="rect150"
     style="opacity:0.3" />
  <rect
     x="122.93797"
     y="522.91742"
     width="30.2621"
     height="10.08737"
     id="rect152"
     style="opacity:0.3" />
  <rect
     x="213.72427"
     y="432.13107"
     width="30.2621"
     height="23.537189"
     id="rect154"
     style="opacity:0.3" />
  <rect
     x="213.72427"
     y="475.84305"
     width="30.2621"
     height="30.2621"
     id="rect156"
     style="opacity:0.3" />
  <rect
     x="213.72427"
     y="522.91742"
     width="30.2621"
     height="10.08737"
     id="rect158"
     style="opacity:0.3" />
  <path
     d="m 74.819861,267.37171 v 31.1 a 45.48981,45.48981 0 0 0 -22.35428,10.77578 l -4.18375,-34.72791 c 14.45778,-7.14787 26.53803,-7.14787 26.53803,-7.14787 z"
     id="path160"
     inkscape:connector-curvature="0"
     style="opacity:0.3" />
  <path
     d="m 39.157921,328.76112 c -3.89037,9.42495 -5.78154,19.892 -6.55344,29.78775 l -30.8838404,-8.2671 c 2.07642,-15.438 5.92052,-28.00461 10.7912304,-38.22464 z"
     id="path162"
     inkscape:connector-curvature="0"
     style="opacity:0.3" />
  <path
     d="m 288.742,267.37171 v 31.1 a 45.48981,45.48981 0 0 1 22.35428,10.77578 52.883,52.883 0 0 1 13.30764,19.51363 c 3.89038,9.42495 5.78155,19.892 6.55345,29.78775 a 170.31788,170.31788 0 0 1 -1.86031,39.96138 h 33.62409 c 1.428,-18.58739 0.9726,-34.53493 -0.87994,-48.22848 -2.07642,-15.438 -5.92053,-28.00461 -10.79123,-38.22464 -9.74141,-20.43225 -23.59708,-31.51676 -35.76995,-37.5376 -14.45778,-7.14782 -26.53803,-7.14782 -26.53803,-7.14782 z"
     id="path164"
     inkscape:connector-curvature="0"
     style="fill:#0057f0" />
  <path
     d="m 288.742,267.37171 v 31.1 a 45.48981,45.48981 0 0 1 22.35428,10.77578 l 4.18375,-34.72791 C 300.82225,267.37171 288.742,267.37171 288.742,267.37171 Z"
     id="path166"
     inkscape:connector-curvature="0"
     style="opacity:0.3" />
  <path
     d="m 324.40392,328.76112 c 3.89038,9.42495 5.78155,19.892 6.55345,29.78775 l 30.88384,-8.2671 c -2.07642,-15.438 -5.92053,-28.00461 -10.79123,-38.22464 z"
     id="path168"
     inkscape:connector-curvature="0"
     style="opacity:0.3" />
  <rect
     x="161.60489"
     y="220.29337"
     width="40.347382"
     height="2.7865601"
     id="rect170"
     style="opacity:0.1" />
  <path
     d="m 268.82992,261.07295 v 56.31033 a 11.73265,11.73265 0 0 1 -3.1262,-7.9815 v -40.35506 a 11.71348,11.71348 0 0 1 3.1262,-7.97377 z"
     id="path172"
     inkscape:connector-curvature="0"
     style="opacity:0.1" />
  <path
     d="m 98.316581,264.7858 v 42.15365 a 11.721,11.721 0 0 1 -3.13392,7.13238 v -56.4184 a 11.721,11.721 0 0 1 3.13392,7.13237 z"
     id="path174"
     inkscape:connector-curvature="0"
     style="opacity:0.1" />
  <rect
     x="106.12824"
     y="371.60947"
     width="151.30843"
     height="1.99152"
     id="rect176"
     style="opacity:0.1" />
  <rect
     x="102.76276"
     y="415.3223"
     width="73.971474"
     height="1.54381"
     id="rect178"
     style="opacity:0.1" />
  <rect
     x="183.46518"
     y="415.3223"
     width="73.971474"
     height="1.54381"
     id="rect180"
     style="opacity:0.1" />
  <rect
     x="111.01438"
     y="13.12235"
     width="11.57854"
     height="99.57547"
     id="rect182"
     style="fill:#0057f0" />
  <rect
     x="243.78171"
     y="13.12235"
     width="11.57854"
     height="99.57547"
     id="rect184"
     style="fill:#0057f0" />
  <circle
     cx="116.4177"
     cy="13.894246"
     r="13.12235"
     id="circle186"
     style="opacity:0.1" />
  <circle
     cx="116.4177"
     cy="13.12235"
     r="13.12235"
     id="circle188"
     style="fill:#0057f0" />
  <circle
     cx="249.95688"
     cy="13.894246"
     r="13.12235"
     id="circle190"
     style="opacity:0.1" />
  <circle
     cx="249.95688"
     cy="13.12235"
     r="13.12235"
     id="circle192"
     style="fill:#0057f0" />
</svg>
