<?xml version="1.0" encoding="UTF-8" standalone="no"?>
<svg
   xmlns:dc="http://purl.org/dc/elements/1.1/"
   xmlns:cc="http://creativecommons.org/ns#"
   xmlns:rdf="http://www.w3.org/1999/02/22-rdf-syntax-ns#"
   xmlns:svg="http://www.w3.org/2000/svg"
   xmlns="http://www.w3.org/2000/svg"
   xmlns:sodipodi="http://sodipodi.sourceforge.net/DTD/sodipodi-0.dtd"
   xmlns:inkscape="http://www.inkscape.org/namespaces/inkscape"
   id="b65f622f-853e-450a-b3c6-fb36327b0801"
   data-name="Layer 1"
   width="406"
   height="408"
   viewBox="0 0 406 408.00001"
   version="1.1"
   sodipodi:docname="undraw_futuristic_interface_4q3p.svg"
   inkscape:version="0.92.4 (5da689c313, 2019-01-14)">
  <metadata
     id="metadata110">
    <rdf:RDF>
      <cc:Work
         rdf:about="">
        <dc:format>image/svg+xml</dc:format>
        <dc:type
           rdf:resource="http://purl.org/dc/dcmitype/StillImage" />
      </cc:Work>
    </rdf:RDF>
  </metadata>
  <sodipodi:namedview
     pagecolor="#ffffff"
     bordercolor="#666666"
     borderopacity="1"
     objecttolerance="10"
     gridtolerance="10"
     guidetolerance="10"
     inkscape:pageopacity="0"
     inkscape:pageshadow="2"
     inkscape:window-width="1920"
     inkscape:window-height="1017"
     id="namedview108"
     showgrid="false"
     inkscape:zoom="0.90497055"
     inkscape:cx="207.10492"
     inkscape:cy="67.078421"
     inkscape:window-x="-8"
     inkscape:window-y="-8"
     inkscape:window-maximized="1"
     inkscape:current-layer="b65f622f-853e-450a-b3c6-fb36327b0801" />
  <defs
     id="defs7">
    <linearGradient
       id="b6650c28-d27b-462d-a47d-3aa47119cf7d"
       x1="369"
       y1="646"
       x2="369"
       gradientUnits="userSpaceOnUse">
      <stop
         offset="0"
         stop-color="#e4e4e4"
         id="stop2" />
      <stop
         offset="0.4735"
         stop-color="#f0f0f0"
         stop-opacity="0.7"
         id="stop4" />
    </linearGradient>
  </defs>
  <title
     id="title9">futuristic_interface</title>
  <path
     d="M 174,348 C 78.05615,348 0,269.94385 0,174 0,78.05615 78.05615,0 174,0 c 95.94434,0 174,78.05616 174,174 0,95.94384 -78.05566,174 -174,174 z M 174,5 C 80.813,5 5,80.813 5,174 5,267.187 80.813,343 174,343 267.18652,343 343,267.187 343,174 343,80.813 267.18652,5 174,5 Z"
     id="path15"
     inkscape:connector-curvature="0"
     style="fill:#3f3d56" />
  <path
     d="M 174,306 C 101.21484,306 42,246.78516 42,174 42,101.21484 101.21484,42 174,42 c 72.78516,0 132,59.21485 132,132 0,72.78515 -59.21484,132 -132,132 z M 174,45 A 129,129 0 1 0 303,174 129.14608,129.14608 0 0 0 174,45 Z"
     id="path17"
     inkscape:connector-curvature="0"
     style="fill:#3f3d56" />
  <path
     d="m 174,216 a 42,42 0 1 1 42,-42 42.0478,42.0478 0 0 1 -42,42 z m 0,-82 a 40,40 0 1 0 40,40 40.04521,40.04521 0 0 0 -40,-40 z"
     id="path19"
     inkscape:connector-curvature="0"
     style="fill:#3f3d56" />
  <path
     d="m 164,124 a 41,41 0 0 0 -41,41 h 41 z"
     id="path21"
     inkscape:connector-curvature="0"
     style="fill:#0057f0" />
  <path
     d="m 123,183 a 41,41 0 0 0 41,41 v -41 z"
     id="path23"
     inkscape:connector-curvature="0"
     style="opacity:0.3;fill:#0057f0" />
  <path
     d="m 181,124 v 41 h 41 a 41,41 0 0 0 -41,-41 z"
     id="path25"
     inkscape:connector-curvature="0"
     style="opacity:0.3;fill:#0057f0" />
  <path
     d="m 181,220 a 41,41 0 0 0 41,-41 h -41 z"
     id="path27"
     inkscape:connector-curvature="0"
     style="fill:#0057f0" />
  <polygon
     points="434.863,98.5 572.5,98.5 572.5,100.5 436.137,100.5 415.406,144.923 413.594,144.077 "
     id="polygon29"
     style="fill:#3f3d56"
     transform="translate(-200,-20)" />
  <rect
     x="328"
     y="35"
     width="78"
     height="6"
     id="rect31"
     style="fill:#3f3d56" />
  <rect
     x="328"
     y="48"
     width="78"
     height="6"
     id="rect33"
     style="fill:#3f3d56" />
  <rect
     x="328"
     y="61"
     width="78"
     height="6"
     id="rect35"
     style="fill:#3f3d56" />
  <rect
     x="135"
     y="365"
     width="78"
     height="6"
     id="rect37"
     style="fill:#3f3d56" />
  <rect
     x="135"
     y="378"
     width="78"
     height="6"
     id="rect39"
     style="fill:#3f3d56" />
  <rect
     x="135"
     y="391"
     width="78"
     height="6"
     id="rect41"
     style="fill:#3f3d56" />
  <polygon
     points="444,272.286 421.15,235.528 422.85,234.472 446,271.714 446,428 444,428 "
     id="polygon43"
     style="fill:#3f3d56"
     transform="translate(-200,-20)" />
  <polygon
     points="302,271.714 325.151,234.472 326.849,235.528 304,272.286 304,428 302,428 "
     id="polygon45"
     style="fill:#3f3d56"
     transform="translate(-200,-20)" />
</svg>
