<?xml version="1.0" encoding="UTF-8" standalone="no"?>
<svg
   xmlns:dc="http://purl.org/dc/elements/1.1/"
   xmlns:cc="http://creativecommons.org/ns#"
   xmlns:rdf="http://www.w3.org/1999/02/22-rdf-syntax-ns#"
   xmlns:svg="http://www.w3.org/2000/svg"
   xmlns="http://www.w3.org/2000/svg"
   xmlns:sodipodi="http://sodipodi.sourceforge.net/DTD/sodipodi-0.dtd"
   xmlns:inkscape="http://www.inkscape.org/namespaces/inkscape"
   id="b7c4787f-e4a8-4036-aa60-d215daeece2d"
   data-name="Layer 1"
   width="783"
   height="422.62711"
   viewBox="0 0 783.00001 422.6271"
   version="1.1"
   sodipodi:docname="undraw_goals_w8tw.svg"
   inkscape:version="0.92.4 (5da689c313, 2019-01-14)">
  <metadata
     id="metadata111">
    <rdf:RDF>
      <cc:Work
         rdf:about="">
        <dc:format>image/svg+xml</dc:format>
        <dc:type
           rdf:resource="http://purl.org/dc/dcmitype/StillImage" />
      </cc:Work>
    </rdf:RDF>
  </metadata>
  <defs
     id="defs109" />
  <sodipodi:namedview
     pagecolor="#ffffff"
     bordercolor="#666666"
     borderopacity="1"
     objecttolerance="10"
     gridtolerance="10"
     guidetolerance="10"
     inkscape:pageopacity="0"
     inkscape:pageshadow="2"
     inkscape:window-width="1920"
     inkscape:window-height="1017"
     id="namedview107"
     showgrid="false"
     inkscape:zoom="1.6414584"
     inkscape:cx="333.04899"
     inkscape:cy="168.47412"
     inkscape:window-x="-8"
     inkscape:window-y="-8"
     inkscape:window-maximized="1"
     inkscape:current-layer="b7c4787f-e4a8-4036-aa60-d215daeece2d" />
  <title
     id="title2">goals</title>
  <circle
     cx="366.51062"
     cy="201.66853"
     r="201.66853"
     id="circle10"
     style="fill:#3f3d56" />
  <path
     d="m 366.51064,238.49496 a 35.94961,35.94961 0 1 1 35.94961,-35.94961 35.99039,35.99039 0 0 1 -35.94961,35.94961 z m 0,-70.14558 a 34.196,34.196 0 1 0 34.196,34.196 34.23446,34.23446 0 0 0 -34.196,-34.196 z"
     id="path12"
     inkscape:connector-curvature="0"
     style="opacity:0.3;fill:#00f532;fill-opacity:1" />
  <path
     d="m 366.51064,270.93728 a 68.39194,68.39194 0 1 1 68.39194,-68.39193 68.4692,68.4692 0 0 1 -68.39194,68.39193 z m 0,-135.03023 a 66.6383,66.6383 0 1 0 66.6383,66.6383 66.71355,66.71355 0 0 0 -66.6383,-66.6383 z"
     id="path14"
     inkscape:connector-curvature="0"
     style="opacity:0.3;fill:#00f532;fill-opacity:1" />
  <path
     d="m 366.51064,298.99554 a 96.45017,96.45017 0 1 1 96.45017,-96.45017 96.55931,96.55931 0 0 1 -96.45017,96.45017 z m 0,-191.1467 a 94.69653,94.69653 0 1 0 94.69653,94.69653 94.80393,94.80393 0 0 0 -94.69653,-94.69655 z"
     id="path16"
     inkscape:connector-curvature="0"
     style="opacity:0.3;fill:#00f532;fill-opacity:1" />
  <path
     d="m 366.51064,335.82194 c -73.48888,0 -133.2766,-59.78728 -133.2766,-133.27659 0,-73.48888 59.78772,-133.276599 133.2766,-133.276599 73.48931,0 133.2766,59.787719 133.2766,133.276599 0,73.48931 -59.78726,133.27659 -133.2766,133.27659 z m 0,-264.799549 c -72.52215,0 -131.523,59.000809 -131.523,131.522999 0,72.52172 59.00081,131.52295 131.523,131.52295 72.52172,0 131.523,-59.00123 131.523,-131.52295 -4e-5,-72.52219 -59.00128,-131.522999 -131.523,-131.522999 z"
     id="path18"
     inkscape:connector-curvature="0"
     style="opacity:0.3;fill:#00f532;fill-opacity:1" />
  <path
     d="m 366.51064,366.51063 c -90.4109,0 -163.96529,-73.55438 -163.96529,-163.96528 0,-90.4109 73.55439,-163.965289 163.96529,-163.965289 90.4109,0 163.96528,73.554389 163.96528,163.965289 0,90.4109 -73.55438,163.96528 -163.96528,163.96528 z m 0,-326.176929 c -89.44375,0 -162.21165,72.767899 -162.21165,162.211649 0,89.44417 72.7679,162.21164 162.21165,162.21164 89.44417,0 162.21165,-72.76747 162.21165,-162.21164 0,-89.44375 -72.76748,-162.211649 -162.21165,-162.211649 z"
     id="path20"
     inkscape:connector-curvature="0"
     style="opacity:0.3;fill:#00f532;fill-opacity:1" />
  <circle
     cx="366.51062"
     cy="201.66853"
     r="16.659571"
     id="circle22"
     style="opacity:0.3;fill:#0057f0" />
  <circle
     cx="409.47479"
     cy="249.89363"
     r="16.659571"
     id="circle24"
     style="opacity:0.3;fill:#0057f0" />
  <circle
     cx="292.85779"
     cy="242.87907"
     r="16.659571"
     id="circle26"
     style="opacity:0.3;fill:#0057f0" />
  <circle
     cx="366.51062"
     cy="201.66853"
     r="7.8913798"
     id="circle28"
     style="fill:#2f2e41" />
  <circle
     cx="292.85779"
     cy="242.87907"
     r="7.8913798"
     id="circle30"
     style="fill:#2f2e41" />
  <circle
     cx="409.47479"
     cy="250.77043"
     r="7.8913798"
     id="circle32"
     style="fill:#2f2e41" />
  <circle
     cx="734.7749"
     cy="113.10974"
     r="7.8913798"
     id="circle34"
     style="fill:#0057f0" />
  <polygon
     points="568.195,155.882 916.293,155.882 916.293,157.636 569.949,157.636 569.949,246.194 568.195,246.194 "
     id="polygon36"
     style="fill:#2f2e41"
     transform="translate(-203,-44.087509)" />
  <path
     d="m 734.77488,135.90705 a 22.79732,22.79732 0 1 1 22.7973,-22.79731 22.82289,22.82289 0 0 1 -22.7973,22.79731 z m 0,-43.840999 a 21.04368,21.04368 0 1 0 21.0437,21.043679 21.06779,21.06779 0 0 0 -21.0437,-21.043669 z"
     id="path38"
     inkscape:connector-curvature="0"
     style="fill:#2f2e41" />
  <circle
     cx="682.16571"
     cy="340.20605"
     r="7.8913798"
     id="circle40"
     style="fill:#0057f0" />
  <path
     d="m 682.16573,363.00335 a 22.79731,22.79731 0 1 1 22.79735,-22.79731 22.82261,22.82261 0 0 1 -22.79735,22.79731 z m 0,-43.841 a 21.04367,21.04367 0 1 0 21.04365,21.04367 21.06778,21.06778 0 0 0 -21.04365,-21.04365 z"
     id="path42"
     inkscape:connector-curvature="0"
     style="fill:#2f2e41" />
  <circle
     cx="48.225082"
     cy="149.93617"
     r="7.8913798"
     id="circle44"
     style="fill:#0057f0" />
  <path
     d="M 48.22508,172.73348 A 22.79732,22.79732 0 1 1 71.0224,149.93616 22.82316,22.82316 0 0 1 48.22508,172.73348 Z m 0,-43.841 a 21.04368,21.04368 0 1 0 21.04368,21.04367 21.06778,21.06778 0 0 0 -21.04368,-21.04361 z"
     id="path46"
     inkscape:connector-curvature="0"
     style="fill:#2f2e41" />
  <polygon
     points="494.981,198.394 273.132,194.9 273.159,193.147 496.735,196.668 496.735,286.967 494.981,286.967 "
     id="polygon48"
     style="fill:#2f2e41"
     transform="translate(-203,-44.087509)" />
  <polygon
     points="611.598,294.858 613.352,294.858 613.352,383.417 863.245,383.417 863.245,385.17 611.598,385.17 "
     id="polygon50"
     style="fill:#2f2e41"
     transform="translate(-203,-44.087509)" />
  <rect
     x="686.5498"
     y="154.32027"
     width="96.450172"
     height="6.1377401"
     id="rect52"
     style="fill:#2f2e41" />
  <rect
     x="686.5498"
     y="171.85666"
     width="96.450172"
     height="6.1377401"
     id="rect54"
     style="fill:#2f2e41" />
  <rect
     x="686.5498"
     y="189.39307"
     width="96.450172"
     height="6.1377401"
     id="rect56"
     style="fill:#2f2e41" />
  <rect
     x="633.94067"
     y="381.41656"
     width="96.450172"
     height="6.1377401"
     id="rect58"
     style="fill:#2f2e41" />
  <rect
     x="633.94067"
     y="398.95294"
     width="96.450172"
     height="6.1377401"
     id="rect60"
     style="fill:#2f2e41" />
  <rect
     x="633.94067"
     y="416.48938"
     width="96.450172"
     height="6.1377401"
     id="rect62"
     style="fill:#2f2e41" />
  <rect
     x="0"
     y="192.02351"
     width="96.450172"
     height="6.1377401"
     id="rect64"
     style="fill:#2f2e41" />
  <rect
     x="0"
     y="209.55991"
     width="96.450172"
     height="6.1377401"
     id="rect66"
     style="fill:#2f2e41" />
  <rect
     x="0"
     y="227.0963"
     width="96.450172"
     height="6.1377401"
     id="rect68"
     style="fill:#2f2e41" />
  <path
     d="m 366.44501,238.34908 a 35.73797,35.73797 0 1 1 35.73797,-35.73797 35.77851,35.77851 0 0 1 -35.73797,35.73797 z m 0,-69.73262 a 33.994684,33.994684 0 1 0 33.99468,33.99468 34.032918,34.032918 0 0 0 -33.99468,-33.99468 z"
     id="path12-2"
     inkscape:connector-curvature="0"
     style="opacity:0.3;fill:#00f532;fill-opacity:1;stroke-width:1" />
  <path
     d="m 366.44501,270.60041 a 67.989308,67.989308 0 1 1 67.98931,-67.9893 68.066114,68.066114 0 0 1 -67.98931,67.9893 z m 0,-134.23529 a 66.245992,66.245992 0 1 0 66.24599,66.24599 66.320799,66.320799 0 0 0 -66.24599,-66.24599 z"
     id="path14-2"
     inkscape:connector-curvature="0"
     style="opacity:0.3;fill:#00f532;fill-opacity:1;stroke-width:1" />
  <path
     d="m 366.44501,298.49349 a 95.882356,95.882356 0 1 1 95.88235,-95.88236 95.990854,95.990854 0 0 1 -95.88235,95.88236 z m 0,-190.0214 a 94.13904,94.13904 0 1 0 94.13904,94.13904 94.245808,94.245808 0 0 0 -94.13904,-94.13906 z"
     id="path16-1"
     inkscape:connector-curvature="0"
     style="opacity:0.3;fill:#00f532;fill-opacity:1;stroke-width:1" />
  <path
     d="m 366.44501,335.10309 c -73.05625,0 -132.49199,-59.43531 -132.49199,-132.49198 0,-73.05624 59.43574,-132.492014 132.49199,-132.492014 73.05667,0 132.49198,59.435774 132.49198,132.492014 0,73.05667 -59.43528,132.49198 -132.49198,132.49198 z m 0,-263.240678 c -72.09521,0 -130.74871,58.653498 -130.74871,130.748738 0,72.09478 58.65346,130.74866 130.74871,130.74866 72.09477,0 130.74871,-58.65388 130.74871,-130.74866 -4e-5,-72.09524 -58.65394,-130.748738 -130.74871,-130.748738 z"
     id="path18-2"
     inkscape:connector-curvature="0"
     style="opacity:0.3;fill:#00f532;fill-opacity:1;stroke-width:1" />
  <path
     d="m 366.44501,365.61111 c -89.87864,0 -163.00001,-73.12136 -163.00001,-163 0,-89.87864 73.12137,-163.000036 163.00001,-163.000036 89.87864,0 162.99999,73.121396 162.99999,163.000036 0,89.87864 -73.12135,163 -162.99999,163 z m 0,-324.25672 c -88.91719,0 -161.25669,72.33954 -161.25669,161.25672 0,88.91761 72.3395,161.25668 161.25669,161.25668 88.9176,0 161.25669,-72.33907 161.25669,-161.25668 0,-88.91718 -72.33909,-161.25672 -161.25669,-161.25672 z"
     id="path20-9"
     inkscape:connector-curvature="0"
     style="opacity:0.3;fill:#00f532;fill-opacity:1;stroke-width:1" />
</svg>
